<?xml version="1.0" encoding="UTF-8"?>
<svg xmlns="http://www.w3.org/2000/svg" width="3900
" height="1420" viewBox="0 0 3900 1420
" role="img" aria-labelledby="ipawcus-level-2-8-0-title">
<title id="ipawcus-level-2-8-0-title">IPAWCUS Level 2 DFD - Process 8.0</title>
<desc>FigJam-importable IPAWCUS data-flow diagram with editable vector shapes and text.</desc>
<defs><marker id="ipawcus-level-2-8-0-arrow" markerWidth="10" markerHeight="10" refX="8.5" refY="5" orient="auto" markerUnits="strokeWidth"><path d="M 0 0 L 10 5 L 0 10 z" fill="#334155"/></marker></defs>
<g id="ipawcus-level-2-8-0-board">
<rect x="0" y="0" width="3900" height="1420" fill="#ffffff"/><text x="30" y="38" text-anchor="start" dominant-baseline="middle" font-family="Inter, Arial, sans-serif" font-size="25" font-weight="750" fill="#0f172a"><tspan x="30" y="38.0">IPAWCUS Level 2 DFD - Process 8.0</tspan></text><text x="30" y="68" text-anchor="start" dominant-baseline="middle" font-family="Inter, Arial, sans-serif" font-size="12" font-weight="400" fill="#475569"><tspan x="30" y="68.0">Manage Notifications and Tasks: decomposition of Level-1 Process 8.0</tspan></text><rect x="3060" y="18" width="810" height="42" rx="7" fill="#f8fafc" stroke="#cbd5e1"/><text x="3465" y="39" text-anchor="middle" dominant-baseline="middle" font-family="Inter, Arial, sans-serif" font-size="12" font-weight="700" fill="#334155"><tspan x="3465" y="39.0">PROCESS 8.0 BOUNDARY  -&gt;  DECOMPOSED DATA FLOWS</tspan></text><rect x="2970" y="70" width="900" height="40" rx="7" fill="#ffffff" stroke="#cbd5e1"/><text x="2985" y="90" text-anchor="start" dominant-baseline="middle" font-family="Inter, Arial, sans-serif" font-size="11" font-weight="400" fill="#334155"><tspan x="2985" y="90.0">Rectangle = external entity    Rounded box = process    Open-ended box = logical data store    Arrow label = data moved</tspan></text><g id="ipawcus-level-2-8-0-left-role-zone"><rect x="40" y="112" width="320" height="34" rx="12" fill="#ffffff" fill-opacity="0" stroke="#cbd5e1" stroke-width="1.5" stroke-dasharray="8 8"/><text x="200" y="139" text-anchor="middle" dominant-baseline="middle" font-family="Inter, Arial, sans-serif" font-size="13" font-weight="700" fill="#475569"><tspan x="200" y="139.0">EXTERNAL ENTITY</tspan></text></g><g id="ipawcus-level-2-8-0-process-zone"><rect x="610" y="112" width="680" height="34" rx="12" fill="#ffffff" fill-opacity="0" stroke="#cbd5e1" stroke-width="1.5" stroke-dasharray="8 8"/><text x="950" y="139" text-anchor="middle" dominant-baseline="middle" font-family="Inter, Arial, sans-serif" font-size="13" font-weight="700" fill="#475569"><tspan x="950" y="139.0">SUBPROCESSES</tspan></text></g><g id="ipawcus-level-2-8-0-stores-zone"><rect x="1910" y="112" width="740" height="34" rx="12" fill="#ffffff" fill-opacity="0" stroke="#cbd5e1" stroke-width="1.5" stroke-dasharray="8 8"/><text x="2280" y="139" text-anchor="middle" dominant-baseline="middle" font-family="Inter, Arial, sans-serif" font-size="13" font-weight="700" fill="#475569"><tspan x="2280" y="139.0">LOGICAL DATA STORES</tspan></text></g><g id="ipawcus-level-2-8-0-right-role-zone"><rect x="3540" y="112" width="320" height="34" rx="12" fill="#ffffff" fill-opacity="0" stroke="#cbd5e1" stroke-width="1.5" stroke-dasharray="8 8"/><text x="3700" y="139" text-anchor="middle" dominant-baseline="middle" font-family="Inter, Arial, sans-serif" font-size="13" font-weight="700" fill="#475569"><tspan x="3700" y="139.0">EXTERNAL ENTITIES</tspan></text></g><g id="l2-8-e01-connector"><path d="M 3570 770 L 2620 770 L 2620 290 L 1260 290 L 1260 280 L 1220 280" fill="none" stroke="#ffffff" stroke-width="8" stroke-linecap="round" stroke-linejoin="round"/><path d="M 3570 770 L 2620 770 L 2620 290 L 1260 290 L 1260 280 L 1220 280" fill="none" stroke="#334155" stroke-width="1.8" stroke-linecap="round" stroke-linejoin="round" marker-end="url(#ipawcus-level-2-8-0-arrow)"/></g><g id="l2-8-e02-connector"><path d="M 1980 220 L 1210 220 L 1210 400 L 1260 400 L 1260 410 L 1220 410" fill="none" stroke="#ffffff" stroke-width="8" stroke-linecap="round" stroke-linejoin="round"/><path d="M 1980 220 L 1210 220 L 1210 400 L 1260 400 L 1260 410 L 1220 410" fill="none" stroke="#334155" stroke-width="1.8" stroke-linecap="round" stroke-linejoin="round" marker-end="url(#ipawcus-level-2-8-0-arrow)"/></g><g id="l2-8-e03-connector"><path d="M 1980 1190 L 1270 1190 L 1270 320 L 1220 320" fill="none" stroke="#ffffff" stroke-width="8" stroke-linecap="round" stroke-linejoin="round"/><path d="M 1980 1190 L 1270 1190 L 1270 320 L 1220 320" fill="none" stroke="#334155" stroke-width="1.8" stroke-linecap="round" stroke-linejoin="round" marker-end="url(#ipawcus-level-2-8-0-arrow)"/></g><g id="l2-8-e04-connector"><path d="M 1220 360 L 1930 360 L 1930 1210 L 1980 1210" fill="none" stroke="#ffffff" stroke-width="8" stroke-linecap="round" stroke-linejoin="round"/><path d="M 1220 360 L 1930 360 L 1930 1210 L 1980 1210" fill="none" stroke="#334155" stroke-width="1.8" stroke-linecap="round" stroke-linejoin="round" marker-end="url(#ipawcus-level-2-8-0-arrow)"/></g><g id="l2-8-e05-connector"><path d="M 950 420 L 950 460 L 640 460 L 640 1010 L 700 1010 L 700 1050" fill="none" stroke="#ffffff" stroke-width="8" stroke-linecap="round" stroke-linejoin="round"/><path d="M 950 420 L 950 460 L 640 460 L 640 1010 L 700 1010 L 700 1050" fill="none" stroke="#334155" stroke-width="1.8" stroke-linecap="round" stroke-linejoin="round" marker-end="url(#ipawcus-level-2-8-0-arrow)"/></g><g id="l2-8-e06-connector"><path d="M 1980 390 L 1940 390 L 1940 700 L 1220 700" fill="none" stroke="#ffffff" stroke-width="8" stroke-linecap="round" stroke-linejoin="round"/><path d="M 1980 390 L 1940 390 L 1940 700 L 1220 700" fill="none" stroke="#334155" stroke-width="1.8" stroke-linecap="round" stroke-linejoin="round" marker-end="url(#ipawcus-level-2-8-0-arrow)"/></g><g id="l2-8-e07-connector"><path d="M 1980 560 L 1210 560 L 1210 750 L 1260 750 L 1260 760 L 1220 760" fill="none" stroke="#ffffff" stroke-width="8" stroke-linecap="round" stroke-linejoin="round"/><path d="M 1980 560 L 1210 560 L 1210 750 L 1260 750 L 1260 760 L 1220 760" fill="none" stroke="#334155" stroke-width="1.8" stroke-linecap="round" stroke-linejoin="round" marker-end="url(#ipawcus-level-2-8-0-arrow)"/></g><g id="l2-8-e08-connector"><path d="M 1980 720 L 1290 720 L 1290 820 L 1220 820" fill="none" stroke="#ffffff" stroke-width="8" stroke-linecap="round" stroke-linejoin="round"/><path d="M 1980 720 L 1290 720 L 1290 820 L 1220 820" fill="none" stroke="#334155" stroke-width="1.8" stroke-linecap="round" stroke-linejoin="round" marker-end="url(#ipawcus-level-2-8-0-arrow)"/></g><g id="l2-8-e09-connector"><path d="M 1980 890 L 1260 890 L 1260 790 L 1220 790" fill="none" stroke="#ffffff" stroke-width="8" stroke-linecap="round" stroke-linejoin="round"/><path d="M 1980 890 L 1260 890 L 1260 790 L 1220 790" fill="none" stroke="#334155" stroke-width="1.8" stroke-linecap="round" stroke-linejoin="round" marker-end="url(#ipawcus-level-2-8-0-arrow)"/></g><g id="l2-8-e10-connector"><path d="M 1980 1050 L 1940 1050 L 1940 730 L 1220 730" fill="none" stroke="#ffffff" stroke-width="8" stroke-linecap="round" stroke-linejoin="round"/><path d="M 1980 1050 L 1940 1050 L 1940 730 L 1220 730" fill="none" stroke="#334155" stroke-width="1.8" stroke-linecap="round" stroke-linejoin="round" marker-end="url(#ipawcus-level-2-8-0-arrow)"/></g><g id="l2-8-e11-connector"><path d="M 1980 1230 L 1280 1230 L 1280 650 L 1220 650" fill="none" stroke="#ffffff" stroke-width="8" stroke-linecap="round" stroke-linejoin="round"/><path d="M 1980 1230 L 1280 1230 L 1280 650 L 1220 650" fill="none" stroke="#334155" stroke-width="1.8" stroke-linecap="round" stroke-linejoin="round" marker-end="url(#ipawcus-level-2-8-0-arrow)"/></g><g id="l2-8-e12-connector"><path d="M 1220 670 L 1920 670 L 1920 1250 L 1980 1250" fill="none" stroke="#ffffff" stroke-width="8" stroke-linecap="round" stroke-linejoin="round"/><path d="M 1220 670 L 1920 670 L 1920 1250 L 1980 1250" fill="none" stroke="#334155" stroke-width="1.8" stroke-linecap="round" stroke-linejoin="round" marker-end="url(#ipawcus-level-2-8-0-arrow)"/></g><g id="l2-8-e13-connector"><path d="M 950 830 L 950 870 L 1200 870 L 1200 1050" fill="none" stroke="#ffffff" stroke-width="8" stroke-linecap="round" stroke-linejoin="round"/><path d="M 950 830 L 950 870 L 1200 870 L 1200 1050" fill="none" stroke="#334155" stroke-width="1.8" stroke-linecap="round" stroke-linejoin="round" marker-end="url(#ipawcus-level-2-8-0-arrow)"/></g><g id="l2-8-e14-connector"><path d="M 1980 1270 L 1260 1270 L 1260 1160 L 1220 1160" fill="none" stroke="#ffffff" stroke-width="8" stroke-linecap="round" stroke-linejoin="round"/><path d="M 1980 1270 L 1260 1270 L 1260 1160 L 1220 1160" fill="none" stroke="#334155" stroke-width="1.8" stroke-linecap="round" stroke-linejoin="round" marker-end="url(#ipawcus-level-2-8-0-arrow)"/></g><g id="l2-8-e15-connector"><path d="M 1220 1220 L 1270 1220 L 1270 1300 L 1980 1300" fill="none" stroke="#ffffff" stroke-width="8" stroke-linecap="round" stroke-linejoin="round"/><path d="M 1220 1220 L 1270 1220 L 1270 1300 L 1980 1300" fill="none" stroke="#334155" stroke-width="1.8" stroke-linecap="round" stroke-linejoin="round" marker-end="url(#ipawcus-level-2-8-0-arrow)"/></g><g id="l2-8-e16-connector"><path d="M 1220 1110 L 1260 1110 L 1260 1140 L 3570 1140" fill="none" stroke="#ffffff" stroke-width="8" stroke-linecap="round" stroke-linejoin="round"/><path d="M 1220 1110 L 1260 1110 L 1260 1140 L 3570 1140" fill="none" stroke="#334155" stroke-width="1.8" stroke-linecap="round" stroke-linejoin="round" marker-end="url(#ipawcus-level-2-8-0-arrow)"/></g><g id="l2-8-e17-connector"><path d="M 1220 1060 L 1260 1060 L 1260 960 L 3530 960 L 3530 710 L 3570 710" fill="none" stroke="#ffffff" stroke-width="8" stroke-linecap="round" stroke-linejoin="round"/><path d="M 1220 1060 L 1260 1060 L 1260 960 L 3530 960 L 3530 710 L 3570 710" fill="none" stroke="#334155" stroke-width="1.8" stroke-linecap="round" stroke-linejoin="round" marker-end="url(#ipawcus-level-2-8-0-arrow)"/></g><g id="l2-8-e18-connector"><path d="M 680 1140 L 340 1140" fill="none" stroke="#ffffff" stroke-width="8" stroke-linecap="round" stroke-linejoin="round"/><path d="M 680 1140 L 340 1140" fill="none" stroke="#334155" stroke-width="1.8" stroke-linecap="round" stroke-linejoin="round" marker-end="url(#ipawcus-level-2-8-0-arrow)"/></g><g id="l2-8-p81"><rect x="680" y="270" width="540" height="150" rx="46" fill="#eff6ff" stroke="#2563eb" stroke-width="2.5"/><text x="950" y="345" text-anchor="middle" dominant-baseline="middle" font-family="Inter, Arial, sans-serif" font-size="16" font-weight="700" fill="#111827"><tspan x="950" y="334.6">8.1</tspan><tspan x="950" y="355.4">MANAGE RECIPIENT PREFERENCES AND TASKS</tspan></text></g><g id="ipawcus-level-2-8-0-store-d1"><rect x="1980" y="180" width="600" height="70" fill="#f0fdf4"/><path d="M 1980 180 H 2580 M 1980 250 H 2580 M 1998 180 V 250" fill="none" stroke="#15803d" stroke-width="2.5"/><text x="2280" y="215" text-anchor="middle" dominant-baseline="middle" font-family="Inter, Arial, sans-serif" font-size="14" font-weight="700" fill="#111827"><tspan x="2280" y="205.9">D1</tspan><tspan x="2280" y="224.1">User, Profile, Role and Branch Access Data</tspan></text></g><g id="ipawcus-level-2-8-0-store-d8"><rect x="1980" y="1180" width="600" height="130" fill="#f0fdf4"/><path d="M 1980 1180 H 2580 M 1980 1310 H 2580 M 1998 1180 V 1310" fill="none" stroke="#15803d" stroke-width="2.5"/><text x="2280" y="1245" text-anchor="middle" dominant-baseline="middle" font-family="Inter, Arial, sans-serif" font-size="14" font-weight="700" fill="#111827"><tspan x="2280" y="1235.9">D8</tspan><tspan x="2280" y="1254.1">Notification, Preference and Task Data</tspan></text></g><g id="ipawcus-level-2-8-0-role-vet"><rect x="3570" y="700" width="260" height="80" rx="5" fill="#ffffff" stroke="#374151" stroke-width="2.5"/><text x="3700" y="740" text-anchor="middle" dominant-baseline="middle" font-family="Inter, Arial, sans-serif" font-size="14" font-weight="700" fill="#111827"><tspan x="3700" y="740.0">VETERINARIAN</tspan></text></g><g id="l2-8-p82"><rect x="680" y="640" width="540" height="190" rx="46" fill="#eff6ff" stroke="#2563eb" stroke-width="2.5"/><text x="950" y="735" text-anchor="middle" dominant-baseline="middle" font-family="Inter, Arial, sans-serif" font-size="16" font-weight="700" fill="#111827"><tspan x="950" y="724.6">8.2</tspan><tspan x="950" y="745.4">COLLECT OPERATIONAL EVENTS</tspan></text></g><g id="ipawcus-level-2-8-0-store-d3"><rect x="1980" y="350" width="600" height="70" fill="#f0fdf4"/><path d="M 1980 350 H 2580 M 1980 420 H 2580 M 1998 350 V 420" fill="none" stroke="#15803d" stroke-width="2.5"/><text x="2280" y="385" text-anchor="middle" dominant-baseline="middle" font-family="Inter, Arial, sans-serif" font-size="14" font-weight="700" fill="#111827"><tspan x="2280" y="375.9">D3</tspan><tspan x="2280" y="394.1">Booking, Consent and Schedule Data</tspan></text></g><g id="ipawcus-level-2-8-0-store-d4"><rect x="1980" y="520" width="600" height="70" fill="#f0fdf4"/><path d="M 1980 520 H 2580 M 1980 590 H 2580 M 1998 520 V 590" fill="none" stroke="#15803d" stroke-width="2.5"/><text x="2280" y="555" text-anchor="middle" dominant-baseline="middle" font-family="Inter, Arial, sans-serif" font-size="14" font-weight="700" fill="#111827"><tspan x="2280" y="545.9">D4</tspan><tspan x="2280" y="564.1">Queue, Visit and Clinical Record Data</tspan></text></g><g id="ipawcus-level-2-8-0-store-d5"><rect x="1980" y="680" width="600" height="70" fill="#f0fdf4"/><path d="M 1980 680 H 2580 M 1980 750 H 2580 M 1998 680 V 750" fill="none" stroke="#15803d" stroke-width="2.5"/><text x="2280" y="715" text-anchor="middle" dominant-baseline="middle" font-family="Inter, Arial, sans-serif" font-size="14" font-weight="700" fill="#111827"><tspan x="2280" y="705.9">D5</tspan><tspan x="2280" y="724.1">Boarding Data</tspan></text></g><g id="ipawcus-level-2-8-0-store-d6"><rect x="1980" y="850" width="600" height="70" fill="#f0fdf4"/><path d="M 1980 850 H 2580 M 1980 920 H 2580 M 1998 850 V 920" fill="none" stroke="#15803d" stroke-width="2.5"/><text x="2280" y="885" text-anchor="middle" dominant-baseline="middle" font-family="Inter, Arial, sans-serif" font-size="14" font-weight="700" fill="#111827"><tspan x="2280" y="875.9">D6</tspan><tspan x="2280" y="894.1">Branch, Service, Room and Inventory Data</tspan></text></g><g id="ipawcus-level-2-8-0-store-d7"><rect x="1980" y="1010" width="600" height="70" fill="#f0fdf4"/><path d="M 1980 1010 H 2580 M 1980 1080 H 2580 M 1998 1010 V 1080" fill="none" stroke="#15803d" stroke-width="2.5"/><text x="2280" y="1045" text-anchor="middle" dominant-baseline="middle" font-family="Inter, Arial, sans-serif" font-size="14" font-weight="700" fill="#111827"><tspan x="2280" y="1035.9">D7</tspan><tspan x="2280" y="1054.1">Charge, Payment and Refund Data</tspan></text></g><g id="l2-8-p83"><rect x="680" y="1050" width="540" height="180" rx="46" fill="#eff6ff" stroke="#2563eb" stroke-width="2.5"/><text x="950" y="1140" text-anchor="middle" dominant-baseline="middle" font-family="Inter, Arial, sans-serif" font-size="16" font-weight="700" fill="#111827"><tspan x="950" y="1129.6">8.3</tspan><tspan x="950" y="1150.4">GENERATE AND DELIVER NOTIFICATIONS</tspan></text></g><g id="ipawcus-level-2-8-0-role-admin"><rect x="3570" y="1100" width="260" height="80" rx="5" fill="#ffffff" stroke="#374151" stroke-width="2.5"/><text x="3700" y="1140" text-anchor="middle" dominant-baseline="middle" font-family="Inter, Arial, sans-serif" font-size="14" font-weight="700" fill="#111827"><tspan x="3700" y="1140.0">ADMIN</tspan></text></g><g id="ipawcus-level-2-8-0-role-owner"><rect x="80" y="1100" width="260" height="80" rx="5" fill="#ffffff" stroke="#374151" stroke-width="2.5"/><text x="210" y="1140" text-anchor="middle" dominant-baseline="middle" font-family="Inter, Arial, sans-serif" font-size="14" font-weight="700" fill="#111827"><tspan x="210" y="1140.0">PET OWNER</tspan></text></g><g id="l2-8-e01-label"><text x="2746.4" y="750.0" text-anchor="middle" dominant-baseline="middle" font-family="Inter, Arial, sans-serif" font-size="11" font-weight="400" fill="#0f172a"><tspan x="2746.4" y="750.0">Task and preference updates</tspan></text></g><g id="l2-8-e02-label"><text x="1675.5" y="240.0" text-anchor="middle" dominant-baseline="middle" font-family="Inter, Arial, sans-serif" font-size="11" font-weight="400" fill="#0f172a"><tspan x="1675.5" y="240.0">Recipient preference data</tspan></text></g><g id="l2-8-e03-label"><text x="1507.3" y="1170.0" text-anchor="middle" dominant-baseline="middle" font-family="Inter, Arial, sans-serif" font-size="11" font-weight="400" fill="#0f172a"><tspan x="1507.3" y="1170.0">Current preference and task data</tspan></text></g><g id="l2-8-e04-label"><text x="1686.9" y="380.0" text-anchor="middle" dominant-baseline="middle" font-family="Inter, Arial, sans-serif" font-size="11" font-weight="400" fill="#0f172a"><tspan x="1686.9" y="380.0">Notification and task updates</tspan></text></g><g id="l2-8-e05-label"><text x="700.0" y="488.0" text-anchor="middle" dominant-baseline="middle" font-family="Inter, Arial, sans-serif" font-size="11" font-weight="400" fill="#0f172a"><tspan x="700.0" y="488.0">Recipient and task rules</tspan></text></g><g id="l2-8-e06-label"><text x="1800.0" y="632.3" text-anchor="middle" dominant-baseline="middle" font-family="Inter, Arial, sans-serif" font-size="11" font-weight="400" fill="#0f172a"><tspan x="1800.0" y="632.3">Booking and schedule events</tspan></text></g><g id="l2-8-e07-label"><text x="1672.6" y="540.0" text-anchor="middle" dominant-baseline="middle" font-family="Inter, Arial, sans-serif" font-size="11" font-weight="400" fill="#0f172a"><tspan x="1672.6" y="540.0">Queue and clinical events</tspan></text></g><g id="l2-8-e08-label"><text x="1730.6" y="788.0" text-anchor="middle" dominant-baseline="middle" font-family="Inter, Arial, sans-serif" font-size="11" font-weight="400" fill="#0f172a"><tspan x="1730.6" y="788.0">Boarding events</tspan></text></g><g id="l2-8-e09-label"><text x="1730.6" y="870.0" text-anchor="middle" dominant-baseline="middle" font-family="Inter, Arial, sans-serif" font-size="11" font-weight="400" fill="#0f172a"><tspan x="1730.6" y="870.0">Stock and service events</tspan></text></g><g id="l2-8-e10-label"><text x="2080.0" y="796.8" text-anchor="middle" dominant-baseline="middle" font-family="Inter, Arial, sans-serif" font-size="11" font-weight="400" fill="#0f172a"><tspan x="2080.0" y="796.8">Billing and payment events</tspan></text></g><g id="l2-8-e11-label"><text x="1591.4" y="1088.0" text-anchor="middle" dominant-baseline="middle" font-family="Inter, Arial, sans-serif" font-size="11" font-weight="400" fill="#0f172a"><tspan x="1591.4" y="1088.0">Notification and task data</tspan></text></g><g id="l2-8-e12-label"><text x="1538.6" y="642.0" text-anchor="middle" dominant-baseline="middle" font-family="Inter, Arial, sans-serif" font-size="11" font-weight="400" fill="#0f172a"><tspan x="1538.6" y="642.0">Queued notification events</tspan></text></g><g id="l2-8-e13-label"><text x="1046.3" y="898.0" text-anchor="middle" dominant-baseline="middle" font-family="Inter, Arial, sans-serif" font-size="11" font-weight="400" fill="#0f172a"><tspan x="1046.3" y="898.0">Notification events</tspan></text></g><g id="l2-8-e14-label"><text x="1727.7" y="1338.0" text-anchor="middle" dominant-baseline="middle" font-family="Inter, Arial, sans-serif" font-size="11" font-weight="400" fill="#0f172a"><tspan x="1727.7" y="1330.8">Queued notifications and delivery</tspan><tspan x="1727.7" y="1345.1">state</tspan></text></g><g id="l2-8-e15-label"><text x="1383.6" y="1328.0" text-anchor="middle" dominant-baseline="middle" font-family="Inter, Arial, sans-serif" font-size="11" font-weight="400" fill="#0f172a"><tspan x="1383.6" y="1328.0">Notification delivery updates</tspan></text></g><g id="l2-8-e16-label"><text x="2735.6" y="1160.0" text-anchor="middle" dominant-baseline="middle" font-family="Inter, Arial, sans-serif" font-size="11" font-weight="400" fill="#0f172a"><tspan x="2735.6" y="1160.0">Operational alerts</tspan></text></g><g id="l2-8-e17-label"><text x="1660.0" y="940.0" text-anchor="middle" dominant-baseline="middle" font-family="Inter, Arial, sans-serif" font-size="11" font-weight="400" fill="#0f172a"><tspan x="1660.0" y="940.0">Case, schedule and task reminders</tspan></text></g><g id="l2-8-e18-label"><text x="511.4" y="1160.0" text-anchor="middle" dominant-baseline="middle" font-family="Inter, Arial, sans-serif" font-size="11" font-weight="400" fill="#0f172a"><tspan x="511.4" y="1160.0">Notifications and reminders</tspan></text></g>
</g>
</svg>
