<?xml version="1.0" encoding="UTF-8"?>
<svg xmlns="http://www.w3.org/2000/svg" width="3900
" height="1550" viewBox="0 0 3900 1550
" role="img" aria-labelledby="ipawcus-level-2-3-0-title">
<title id="ipawcus-level-2-3-0-title">IPAWCUS Level 2 DFD - Process 3.0</title>
<desc>FigJam-importable IPAWCUS data-flow diagram with editable vector shapes and text.</desc>
<defs><marker id="ipawcus-level-2-3-0-arrow" markerWidth="10" markerHeight="10" refX="8.5" refY="5" orient="auto" markerUnits="strokeWidth"><path d="M 0 0 L 10 5 L 0 10 z" fill="#334155"/></marker></defs>
<g id="ipawcus-level-2-3-0-board">
<rect x="0" y="0" width="3900" height="1550" fill="#ffffff"/><text x="30" y="38" text-anchor="start" dominant-baseline="middle" font-family="Inter, Arial, sans-serif" font-size="25" font-weight="750" fill="#0f172a"><tspan x="30" y="38.0">IPAWCUS Level 2 DFD - Process 3.0</tspan></text><text x="30" y="68" text-anchor="start" dominant-baseline="middle" font-family="Inter, Arial, sans-serif" font-size="12" font-weight="400" fill="#475569"><tspan x="30" y="68.0">Manage Bookings and Scheduling: decomposition of Level-1 Process 3.0</tspan></text><rect x="3060" y="18" width="810" height="42" rx="7" fill="#f8fafc" stroke="#cbd5e1"/><text x="3465" y="39" text-anchor="middle" dominant-baseline="middle" font-family="Inter, Arial, sans-serif" font-size="12" font-weight="700" fill="#334155"><tspan x="3465" y="39.0">PROCESS 3.0 BOUNDARY  -&gt;  DECOMPOSED DATA FLOWS</tspan></text><rect x="2970" y="70" width="900" height="40" rx="7" fill="#ffffff" stroke="#cbd5e1"/><text x="2985" y="90" text-anchor="start" dominant-baseline="middle" font-family="Inter, Arial, sans-serif" font-size="11" font-weight="400" fill="#334155"><tspan x="2985" y="90.0">Rectangle = external entity    Rounded box = process    Open-ended box = logical data store    Arrow label = data moved</tspan></text><g id="ipawcus-level-2-3-0-left-role-zone"><rect x="40" y="112" width="320" height="34" rx="12" fill="#ffffff" fill-opacity="0" stroke="#cbd5e1" stroke-width="1.5" stroke-dasharray="8 8"/><text x="200" y="139" text-anchor="middle" dominant-baseline="middle" font-family="Inter, Arial, sans-serif" font-size="13" font-weight="700" fill="#475569"><tspan x="200" y="139.0">EXTERNAL ENTITY</tspan></text></g><g id="ipawcus-level-2-3-0-process-zone"><rect x="610" y="112" width="680" height="34" rx="12" fill="#ffffff" fill-opacity="0" stroke="#cbd5e1" stroke-width="1.5" stroke-dasharray="8 8"/><text x="950" y="139" text-anchor="middle" dominant-baseline="middle" font-family="Inter, Arial, sans-serif" font-size="13" font-weight="700" fill="#475569"><tspan x="950" y="139.0">SUBPROCESSES</tspan></text></g><g id="ipawcus-level-2-3-0-stores-zone"><rect x="1910" y="112" width="740" height="34" rx="12" fill="#ffffff" fill-opacity="0" stroke="#cbd5e1" stroke-width="1.5" stroke-dasharray="8 8"/><text x="2280" y="139" text-anchor="middle" dominant-baseline="middle" font-family="Inter, Arial, sans-serif" font-size="13" font-weight="700" fill="#475569"><tspan x="2280" y="139.0">LOGICAL DATA STORES</tspan></text></g><g id="ipawcus-level-2-3-0-right-role-zone"><rect x="3540" y="112" width="320" height="34" rx="12" fill="#ffffff" fill-opacity="0" stroke="#cbd5e1" stroke-width="1.5" stroke-dasharray="8 8"/><text x="3700" y="139" text-anchor="middle" dominant-baseline="middle" font-family="Inter, Arial, sans-serif" font-size="13" font-weight="700" fill="#475569"><tspan x="3700" y="139.0">EXTERNAL ENTITIES</tspan></text></g><g id="l2-3-e01-connector"><path d="M 1980 250 L 1940 250 L 1940 290 L 1220 290" fill="none" stroke="#ffffff" stroke-width="8" stroke-linecap="round" stroke-linejoin="round"/><path d="M 1980 250 L 1940 250 L 1940 290 L 1220 290" fill="none" stroke="#334155" stroke-width="1.8" stroke-linecap="round" stroke-linejoin="round" marker-end="url(#ipawcus-level-2-3-0-arrow)"/></g><g id="l2-3-e02-connector"><path d="M 1980 870 L 1270 870 L 1270 190 L 1220 190" fill="none" stroke="#ffffff" stroke-width="8" stroke-linecap="round" stroke-linejoin="round"/><path d="M 1980 870 L 1270 870 L 1270 190 L 1220 190" fill="none" stroke="#334155" stroke-width="1.8" stroke-linecap="round" stroke-linejoin="round" marker-end="url(#ipawcus-level-2-3-0-arrow)"/></g><g id="l2-3-e03-connector"><path d="M 950 300 L 950 520" fill="none" stroke="#ffffff" stroke-width="8" stroke-linecap="round" stroke-linejoin="round"/><path d="M 950 300 L 950 520" fill="none" stroke="#334155" stroke-width="1.8" stroke-linecap="round" stroke-linejoin="round" marker-end="url(#ipawcus-level-2-3-0-arrow)"/></g><g id="l2-3-e04-connector"><path d="M 340 760 L 640 760 L 640 600 L 680 600" fill="none" stroke="#ffffff" stroke-width="8" stroke-linecap="round" stroke-linejoin="round"/><path d="M 340 760 L 640 760 L 640 600 L 680 600" fill="none" stroke="#334155" stroke-width="1.8" stroke-linecap="round" stroke-linejoin="round" marker-end="url(#ipawcus-level-2-3-0-arrow)"/></g><g id="l2-3-e05-connector"><path d="M 1980 600 L 1940 600 L 1940 660 L 1220 660" fill="none" stroke="#ffffff" stroke-width="8" stroke-linecap="round" stroke-linejoin="round"/><path d="M 1980 600 L 1940 600 L 1940 660 L 1220 660" fill="none" stroke="#334155" stroke-width="1.8" stroke-linecap="round" stroke-linejoin="round" marker-end="url(#ipawcus-level-2-3-0-arrow)"/></g><g id="l2-3-e06-connector"><path d="M 1220 530 L 1920 530 L 1920 930 L 1980 930" fill="none" stroke="#ffffff" stroke-width="8" stroke-linecap="round" stroke-linejoin="round"/><path d="M 1220 530 L 1920 530 L 1920 930 L 1980 930" fill="none" stroke="#334155" stroke-width="1.8" stroke-linecap="round" stroke-linejoin="round" marker-end="url(#ipawcus-level-2-3-0-arrow)"/></g><g id="l2-3-e07-connector"><path d="M 950 670 L 950 890" fill="none" stroke="#ffffff" stroke-width="8" stroke-linecap="round" stroke-linejoin="round"/><path d="M 950 670 L 950 890" fill="none" stroke="#334155" stroke-width="1.8" stroke-linecap="round" stroke-linejoin="round" marker-end="url(#ipawcus-level-2-3-0-arrow)"/></g><g id="l2-3-e08-connector"><path d="M 3570 950 L 3530 950 L 3530 820 L 1260 820 L 1260 900 L 1220 900" fill="none" stroke="#ffffff" stroke-width="8" stroke-linecap="round" stroke-linejoin="round"/><path d="M 3570 950 L 3530 950 L 3530 820 L 1260 820 L 1260 900 L 1220 900" fill="none" stroke="#334155" stroke-width="1.8" stroke-linecap="round" stroke-linejoin="round" marker-end="url(#ipawcus-level-2-3-0-arrow)"/></g><g id="l2-3-e09-connector"><path d="M 1220 950 L 1260 950 L 1260 1030 L 3530 1030 L 3530 1010 L 3570 1010" fill="none" stroke="#ffffff" stroke-width="8" stroke-linecap="round" stroke-linejoin="round"/><path d="M 1220 950 L 1260 950 L 1260 1030 L 3530 1030 L 3530 1010 L 3570 1010" fill="none" stroke="#334155" stroke-width="1.8" stroke-linecap="round" stroke-linejoin="round" marker-end="url(#ipawcus-level-2-3-0-arrow)"/></g><g id="l2-3-e10-connector"><path d="M 680 980 L 380 980 L 380 820 L 340 820" fill="none" stroke="#ffffff" stroke-width="8" stroke-linecap="round" stroke-linejoin="round"/><path d="M 680 980 L 380 980 L 380 820 L 340 820" fill="none" stroke="#334155" stroke-width="1.8" stroke-linecap="round" stroke-linejoin="round" marker-end="url(#ipawcus-level-2-3-0-arrow)"/></g><g id="l2-3-e11-connector"><path d="M 1980 950 L 1940 950 L 1940 1000 L 1220 1000" fill="none" stroke="#ffffff" stroke-width="8" stroke-linecap="round" stroke-linejoin="round"/><path d="M 1980 950 L 1940 950 L 1940 1000 L 1220 1000" fill="none" stroke="#334155" stroke-width="1.8" stroke-linecap="round" stroke-linejoin="round" marker-end="url(#ipawcus-level-2-3-0-arrow)"/></g><g id="l2-3-e12-connector"><path d="M 1220 1060 L 1920 1060 L 1920 980 L 1980 980" fill="none" stroke="#ffffff" stroke-width="8" stroke-linecap="round" stroke-linejoin="round"/><path d="M 1220 1060 L 1920 1060 L 1920 980 L 1980 980" fill="none" stroke="#334155" stroke-width="1.8" stroke-linecap="round" stroke-linejoin="round" marker-end="url(#ipawcus-level-2-3-0-arrow)"/></g><g id="l2-3-e13-connector"><path d="M 950 1070 L 950 1290" fill="none" stroke="#ffffff" stroke-width="8" stroke-linecap="round" stroke-linejoin="round"/><path d="M 950 1070 L 950 1290" fill="none" stroke="#334155" stroke-width="1.8" stroke-linecap="round" stroke-linejoin="round" marker-end="url(#ipawcus-level-2-3-0-arrow)"/></g><g id="l2-3-e14-connector"><path d="M 3570 1340 L 3530 1340 L 3530 1300 L 1220 1300" fill="none" stroke="#ffffff" stroke-width="8" stroke-linecap="round" stroke-linejoin="round"/><path d="M 3570 1340 L 3530 1340 L 3530 1300 L 1220 1300" fill="none" stroke="#334155" stroke-width="1.8" stroke-linecap="round" stroke-linejoin="round" marker-end="url(#ipawcus-level-2-3-0-arrow)"/></g><g id="l2-3-e15-connector"><path d="M 1220 1340 L 1260 1340 L 1260 1400 L 3570 1400" fill="none" stroke="#ffffff" stroke-width="8" stroke-linecap="round" stroke-linejoin="round"/><path d="M 1220 1340 L 1260 1340 L 1260 1400 L 3570 1400" fill="none" stroke="#334155" stroke-width="1.8" stroke-linecap="round" stroke-linejoin="round" marker-end="url(#ipawcus-level-2-3-0-arrow)"/></g><g id="l2-3-e16-connector"><path d="M 1980 890 L 1270 890 L 1270 1380 L 1220 1380" fill="none" stroke="#ffffff" stroke-width="8" stroke-linecap="round" stroke-linejoin="round"/><path d="M 1980 890 L 1270 890 L 1270 1380 L 1220 1380" fill="none" stroke="#334155" stroke-width="1.8" stroke-linecap="round" stroke-linejoin="round" marker-end="url(#ipawcus-level-2-3-0-arrow)"/></g><g id="l2-3-e17-connector"><path d="M 1220 1430 L 1930 1430 L 1930 910 L 1980 910" fill="none" stroke="#ffffff" stroke-width="8" stroke-linecap="round" stroke-linejoin="round"/><path d="M 1220 1430 L 1930 1430 L 1930 910 L 1980 910" fill="none" stroke="#334155" stroke-width="1.8" stroke-linecap="round" stroke-linejoin="round" marker-end="url(#ipawcus-level-2-3-0-arrow)"/></g><g id="l2-3-p31"><rect x="680" y="180" width="540" height="120" rx="46" fill="#eff6ff" stroke="#2563eb" stroke-width="2.5"/><text x="950" y="240" text-anchor="middle" dominant-baseline="middle" font-family="Inter, Arial, sans-serif" font-size="16" font-weight="700" fill="#111827"><tspan x="950" y="229.6">3.1</tspan><tspan x="950" y="250.4">CHECK AVAILABILITY</tspan></text></g><g id="ipawcus-level-2-3-0-store-d1"><rect x="1980" y="210" width="600" height="70" fill="#f0fdf4"/><path d="M 1980 210 H 2580 M 1980 280 H 2580 M 1998 210 V 280" fill="none" stroke="#15803d" stroke-width="2.5"/><text x="2280" y="245" text-anchor="middle" dominant-baseline="middle" font-family="Inter, Arial, sans-serif" font-size="14" font-weight="700" fill="#111827"><tspan x="2280" y="235.9">D1</tspan><tspan x="2280" y="254.1">User, Profile, Role and Branch Access Data</tspan></text></g><g id="ipawcus-level-2-3-0-store-d3"><rect x="1980" y="860" width="600" height="130" fill="#f0fdf4"/><path d="M 1980 860 H 2580 M 1980 990 H 2580 M 1998 860 V 990" fill="none" stroke="#15803d" stroke-width="2.5"/><text x="2280" y="925" text-anchor="middle" dominant-baseline="middle" font-family="Inter, Arial, sans-serif" font-size="14" font-weight="700" fill="#111827"><tspan x="2280" y="915.9">D3</tspan><tspan x="2280" y="934.1">Booking, Consent and Schedule Data</tspan></text></g><g id="l2-3-p32"><rect x="680" y="520" width="540" height="150" rx="46" fill="#eff6ff" stroke="#2563eb" stroke-width="2.5"/><text x="950" y="595" text-anchor="middle" dominant-baseline="middle" font-family="Inter, Arial, sans-serif" font-size="16" font-weight="700" fill="#111827"><tspan x="950" y="584.6">3.2</tspan><tspan x="950" y="605.4">SUBMIT BOOKING AND CONSENT</tspan></text></g><g id="ipawcus-level-2-3-0-store-d2"><rect x="1980" y="560" width="600" height="70" fill="#f0fdf4"/><path d="M 1980 560 H 2580 M 1980 630 H 2580 M 1998 560 V 630" fill="none" stroke="#15803d" stroke-width="2.5"/><text x="2280" y="595" text-anchor="middle" dominant-baseline="middle" font-family="Inter, Arial, sans-serif" font-size="14" font-weight="700" fill="#111827"><tspan x="2280" y="585.9">D2</tspan><tspan x="2280" y="604.1">Pet and Ownership Data</tspan></text></g><g id="ipawcus-level-2-3-0-role-owner"><rect x="80" y="750" width="260" height="80" rx="5" fill="#ffffff" stroke="#374151" stroke-width="2.5"/><text x="210" y="790" text-anchor="middle" dominant-baseline="middle" font-family="Inter, Arial, sans-serif" font-size="14" font-weight="700" fill="#111827"><tspan x="210" y="790.0">PET OWNER</tspan></text></g><g id="l2-3-p33"><rect x="680" y="890" width="540" height="180" rx="46" fill="#eff6ff" stroke="#2563eb" stroke-width="2.5"/><text x="950" y="980" text-anchor="middle" dominant-baseline="middle" font-family="Inter, Arial, sans-serif" font-size="16" font-weight="700" fill="#111827"><tspan x="950" y="969.6">3.3</tspan><tspan x="950" y="990.4">REVIEW AND DECIDE BOOKING</tspan></text></g><g id="ipawcus-level-2-3-0-role-admin"><rect x="3570" y="940" width="260" height="80" rx="5" fill="#ffffff" stroke="#374151" stroke-width="2.5"/><text x="3700" y="980" text-anchor="middle" dominant-baseline="middle" font-family="Inter, Arial, sans-serif" font-size="14" font-weight="700" fill="#111827"><tspan x="3700" y="980.0">ADMIN</tspan></text></g><g id="l2-3-p34"><rect x="680" y="1290" width="540" height="150" rx="46" fill="#eff6ff" stroke="#2563eb" stroke-width="2.5"/><text x="950" y="1365" text-anchor="middle" dominant-baseline="middle" font-family="Inter, Arial, sans-serif" font-size="16" font-weight="700" fill="#111827"><tspan x="950" y="1354.6">3.4</tspan><tspan x="950" y="1375.4">MAINTAIN VETERINARIAN SCHEDULE</tspan></text></g><g id="ipawcus-level-2-3-0-role-vet"><rect x="3570" y="1330" width="260" height="80" rx="5" fill="#ffffff" stroke="#374151" stroke-width="2.5"/><text x="3700" y="1370" text-anchor="middle" dominant-baseline="middle" font-family="Inter, Arial, sans-serif" font-size="14" font-weight="700" fill="#111827"><tspan x="3700" y="1370.0">VETERINARIAN</tspan></text></g><g id="l2-3-e01-label"><text x="1788.0" y="270.0" text-anchor="middle" dominant-baseline="middle" font-family="Inter, Arial, sans-serif" font-size="11" font-weight="400" fill="#0f172a"><tspan x="1788.0" y="270.0">User access data</tspan></text></g><g id="l2-3-e02-label"><text x="1562.4" y="938.0" text-anchor="middle" dominant-baseline="middle" font-family="Inter, Arial, sans-serif" font-size="11" font-weight="400" fill="#0f172a"><tspan x="1562.4" y="938.0">Booking and schedule data</tspan></text></g><g id="l2-3-e03-label"><text x="950.0" y="391.8" text-anchor="middle" dominant-baseline="middle" font-family="Inter, Arial, sans-serif" font-size="11" font-weight="400" fill="#0f172a"><tspan x="950.0" y="391.8">Available slots</tspan></text></g><g id="l2-3-e04-label"><text x="485.0" y="780.0" text-anchor="middle" dominant-baseline="middle" font-family="Inter, Arial, sans-serif" font-size="11" font-weight="400" fill="#0f172a"><tspan x="485.0" y="780.0">Booking request and consent</tspan></text></g><g id="l2-3-e05-label"><text x="1732.2" y="640.0" text-anchor="middle" dominant-baseline="middle" font-family="Inter, Arial, sans-serif" font-size="11" font-weight="400" fill="#0f172a"><tspan x="1732.2" y="640.0">Pet and ownership data</tspan></text></g><g id="l2-3-e06-label"><text x="1556.4" y="550.0" text-anchor="middle" dominant-baseline="middle" font-family="Inter, Arial, sans-serif" font-size="11" font-weight="400" fill="#0f172a"><tspan x="1556.4" y="550.0">Booking submission</tspan></text></g><g id="l2-3-e07-label"><text x="950.0" y="761.8" text-anchor="middle" dominant-baseline="middle" font-family="Inter, Arial, sans-serif" font-size="11" font-weight="400" fill="#0f172a"><tspan x="950.0" y="761.8">Booking submission</tspan></text></g><g id="l2-3-e08-label"><text x="2957.6" y="840.0" text-anchor="middle" dominant-baseline="middle" font-family="Inter, Arial, sans-serif" font-size="11" font-weight="400" fill="#0f172a"><tspan x="2957.6" y="840.0">Booking decisions</tspan></text></g><g id="l2-3-e09-label"><text x="2071.0" y="1058.0" text-anchor="middle" dominant-baseline="middle" font-family="Inter, Arial, sans-serif" font-size="11" font-weight="400" fill="#0f172a"><tspan x="2071.0" y="1058.0">Booking review details</tspan></text></g><g id="l2-3-e10-label"><text x="535.0" y="1000.0" text-anchor="middle" dominant-baseline="middle" font-family="Inter, Arial, sans-serif" font-size="11" font-weight="400" fill="#0f172a"><tspan x="535.0" y="1000.0">Booking confirmation</tspan></text></g><g id="l2-3-e11-label"><text x="1795.1" y="1102.0" text-anchor="middle" dominant-baseline="middle" font-family="Inter, Arial, sans-serif" font-size="11" font-weight="400" fill="#0f172a"><tspan x="1795.1" y="1102.0">Submitted booking and consent data</tspan></text></g><g id="l2-3-e12-label"><text x="1463.6" y="1080.0" text-anchor="middle" dominant-baseline="middle" font-family="Inter, Arial, sans-serif" font-size="11" font-weight="400" fill="#0f172a"><tspan x="1463.6" y="1080.0">Booking decision and schedule update</tspan></text></g><g id="l2-3-e13-label"><text x="950.0" y="1161.8" text-anchor="middle" dominant-baseline="middle" font-family="Inter, Arial, sans-serif" font-size="11" font-weight="400" fill="#0f172a"><tspan x="950.0" y="1161.8">Approved schedule</tspan></text></g><g id="l2-3-e14-label"><text x="2916.9" y="1320.0" text-anchor="middle" dominant-baseline="middle" font-family="Inter, Arial, sans-serif" font-size="11" font-weight="400" fill="#0f172a"><tspan x="2916.9" y="1320.0">Availability details</tspan></text></g><g id="l2-3-e15-label"><text x="1788.9" y="1380.0" text-anchor="middle" dominant-baseline="middle" font-family="Inter, Arial, sans-serif" font-size="11" font-weight="400" fill="#0f172a"><tspan x="1788.9" y="1380.0">Veterinarian schedule</tspan></text></g><g id="l2-3-e16-label"><text x="1617.5" y="788.0" text-anchor="middle" dominant-baseline="middle" font-family="Inter, Arial, sans-serif" font-size="11" font-weight="400" fill="#0f172a"><tspan x="1617.5" y="788.0">Current veterinarian schedule</tspan></text></g><g id="l2-3-e17-label"><text x="1591.2" y="1458.0" text-anchor="middle" dominant-baseline="middle" font-family="Inter, Arial, sans-serif" font-size="11" font-weight="400" fill="#0f172a"><tspan x="1591.2" y="1458.0">Booking and schedule updates</tspan></text></g>
</g>
</svg>
