<?xml version="1.0" encoding="UTF-8"?>
<svg xmlns="http://www.w3.org/2000/svg" width="3900
" height="1100" viewBox="0 0 3900 1100
" role="img" aria-labelledby="ipawcus-level-2-2-0-title">
<title id="ipawcus-level-2-2-0-title">IPAWCUS Level 2 DFD - Process 2.0</title>
<desc>FigJam-importable IPAWCUS data-flow diagram with editable vector shapes and text.</desc>
<defs><marker id="ipawcus-level-2-2-0-arrow" markerWidth="10" markerHeight="10" refX="8.5" refY="5" orient="auto" markerUnits="strokeWidth"><path d="M 0 0 L 10 5 L 0 10 z" fill="#334155"/></marker></defs>
<g id="ipawcus-level-2-2-0-board">
<rect x="0" y="0" width="3900" height="1100" fill="#ffffff"/><text x="30" y="38" text-anchor="start" dominant-baseline="middle" font-family="Inter, Arial, sans-serif" font-size="25" font-weight="750" fill="#0f172a"><tspan x="30" y="38.0">IPAWCUS Level 2 DFD - Process 2.0</tspan></text><text x="30" y="68" text-anchor="start" dominant-baseline="middle" font-family="Inter, Arial, sans-serif" font-size="12" font-weight="400" fill="#475569"><tspan x="30" y="68.0">Manage Pets and Ownership: decomposition of Level-1 Process 2.0</tspan></text><rect x="3060" y="18" width="810" height="42" rx="7" fill="#f8fafc" stroke="#cbd5e1"/><text x="3465" y="39" text-anchor="middle" dominant-baseline="middle" font-family="Inter, Arial, sans-serif" font-size="12" font-weight="700" fill="#334155"><tspan x="3465" y="39.0">PROCESS 2.0 BOUNDARY  -&gt;  DECOMPOSED DATA FLOWS</tspan></text><rect x="2970" y="70" width="900" height="40" rx="7" fill="#ffffff" stroke="#cbd5e1"/><text x="2985" y="90" text-anchor="start" dominant-baseline="middle" font-family="Inter, Arial, sans-serif" font-size="11" font-weight="400" fill="#334155"><tspan x="2985" y="90.0">Rectangle = external entity    Rounded box = process    Open-ended box = logical data store    Arrow label = data moved</tspan></text><g id="ipawcus-level-2-2-0-left-role-zone"><rect x="40" y="112" width="320" height="34" rx="12" fill="#ffffff" fill-opacity="0" stroke="#cbd5e1" stroke-width="1.5" stroke-dasharray="8 8"/><text x="200" y="139" text-anchor="middle" dominant-baseline="middle" font-family="Inter, Arial, sans-serif" font-size="13" font-weight="700" fill="#475569"><tspan x="200" y="139.0">EXTERNAL ENTITY</tspan></text></g><g id="ipawcus-level-2-2-0-process-zone"><rect x="610" y="112" width="680" height="34" rx="12" fill="#ffffff" fill-opacity="0" stroke="#cbd5e1" stroke-width="1.5" stroke-dasharray="8 8"/><text x="950" y="139" text-anchor="middle" dominant-baseline="middle" font-family="Inter, Arial, sans-serif" font-size="13" font-weight="700" fill="#475569"><tspan x="950" y="139.0">SUBPROCESSES</tspan></text></g><g id="ipawcus-level-2-2-0-stores-zone"><rect x="1910" y="112" width="740" height="34" rx="12" fill="#ffffff" fill-opacity="0" stroke="#cbd5e1" stroke-width="1.5" stroke-dasharray="8 8"/><text x="2280" y="139" text-anchor="middle" dominant-baseline="middle" font-family="Inter, Arial, sans-serif" font-size="13" font-weight="700" fill="#475569"><tspan x="2280" y="139.0">LOGICAL DATA STORES</tspan></text></g><g id="ipawcus-level-2-2-0-right-role-zone"><rect x="3540" y="112" width="320" height="34" rx="12" fill="#ffffff" fill-opacity="0" stroke="#cbd5e1" stroke-width="1.5" stroke-dasharray="8 8"/><text x="3700" y="139" text-anchor="middle" dominant-baseline="middle" font-family="Inter, Arial, sans-serif" font-size="13" font-weight="700" fill="#475569"><tspan x="3700" y="139.0">EXTERNAL ENTITIES</tspan></text></g><g id="l2-2-e01-connector"><path d="M 340 220 L 380 220 L 380 190 L 680 190" fill="none" stroke="#ffffff" stroke-width="8" stroke-linecap="round" stroke-linejoin="round"/><path d="M 340 220 L 380 220 L 380 190 L 680 190" fill="none" stroke="#334155" stroke-width="1.8" stroke-linecap="round" stroke-linejoin="round" marker-end="url(#ipawcus-level-2-2-0-arrow)"/></g><g id="l2-2-e02-connector"><path d="M 680 300 L 640 300 L 640 280 L 340 280" fill="none" stroke="#ffffff" stroke-width="8" stroke-linecap="round" stroke-linejoin="round"/><path d="M 680 300 L 640 300 L 640 280 L 340 280" fill="none" stroke="#334155" stroke-width="1.8" stroke-linecap="round" stroke-linejoin="round" marker-end="url(#ipawcus-level-2-2-0-arrow)"/></g><g id="l2-2-e03-connector"><path d="M 1980 500 L 1940 500 L 1940 190 L 1220 190" fill="none" stroke="#ffffff" stroke-width="8" stroke-linecap="round" stroke-linejoin="round"/><path d="M 1980 500 L 1940 500 L 1940 190 L 1220 190" fill="none" stroke="#334155" stroke-width="1.8" stroke-linecap="round" stroke-linejoin="round" marker-end="url(#ipawcus-level-2-2-0-arrow)"/></g><g id="l2-2-e04-connector"><path d="M 1220 300 L 1260 300 L 1260 520 L 1980 520" fill="none" stroke="#ffffff" stroke-width="8" stroke-linecap="round" stroke-linejoin="round"/><path d="M 1220 300 L 1260 300 L 1260 520 L 1980 520" fill="none" stroke="#334155" stroke-width="1.8" stroke-linecap="round" stroke-linejoin="round" marker-end="url(#ipawcus-level-2-2-0-arrow)"/></g><g id="l2-2-e05-connector"><path d="M 3570 730 L 1270 730 L 1270 540 L 1220 540" fill="none" stroke="#ffffff" stroke-width="8" stroke-linecap="round" stroke-linejoin="round"/><path d="M 3570 730 L 1270 730 L 1270 540 L 1220 540" fill="none" stroke="#334155" stroke-width="1.8" stroke-linecap="round" stroke-linejoin="round" marker-end="url(#ipawcus-level-2-2-0-arrow)"/></g><g id="l2-2-e06-connector"><path d="M 1980 540 L 1940 540 L 1940 590 L 1220 590" fill="none" stroke="#ffffff" stroke-width="8" stroke-linecap="round" stroke-linejoin="round"/><path d="M 1980 540 L 1940 540 L 1940 590 L 1220 590" fill="none" stroke="#334155" stroke-width="1.8" stroke-linecap="round" stroke-linejoin="round" marker-end="url(#ipawcus-level-2-2-0-arrow)"/></g><g id="l2-2-e07-connector"><path d="M 1220 640 L 1260 640 L 1260 570 L 1980 570" fill="none" stroke="#ffffff" stroke-width="8" stroke-linecap="round" stroke-linejoin="round"/><path d="M 1220 640 L 1260 640 L 1260 570 L 1980 570" fill="none" stroke="#334155" stroke-width="1.8" stroke-linecap="round" stroke-linejoin="round" marker-end="url(#ipawcus-level-2-2-0-arrow)"/></g><g id="l2-2-e08-connector"><path d="M 1980 480 L 1280 480 L 1280 980 L 1220 980" fill="none" stroke="#ffffff" stroke-width="8" stroke-linecap="round" stroke-linejoin="round"/><path d="M 1980 480 L 1280 480 L 1280 980 L 1220 980" fill="none" stroke="#334155" stroke-width="1.8" stroke-linecap="round" stroke-linejoin="round" marker-end="url(#ipawcus-level-2-2-0-arrow)"/></g><g id="l2-2-e09-connector"><path d="M 1220 880 L 3530 880 L 3530 790 L 3570 790" fill="none" stroke="#ffffff" stroke-width="8" stroke-linecap="round" stroke-linejoin="round"/><path d="M 1220 880 L 3530 880 L 3530 790 L 3570 790" fill="none" stroke="#334155" stroke-width="1.8" stroke-linecap="round" stroke-linejoin="round" marker-end="url(#ipawcus-level-2-2-0-arrow)"/></g><g id="l2-2-p21"><rect x="680" y="180" width="540" height="130" rx="46" fill="#eff6ff" stroke="#2563eb" stroke-width="2.5"/><text x="950" y="245" text-anchor="middle" dominant-baseline="middle" font-family="Inter, Arial, sans-serif" font-size="16" font-weight="700" fill="#111827"><tspan x="950" y="234.6">2.1</tspan><tspan x="950" y="255.4">REGISTER AND MAINTAIN PET</tspan></text></g><g id="ipawcus-level-2-2-0-store-d2"><rect x="1980" y="470" width="600" height="110" fill="#f0fdf4"/><path d="M 1980 470 H 2580 M 1980 580 H 2580 M 1998 470 V 580" fill="none" stroke="#15803d" stroke-width="2.5"/><text x="2280" y="525" text-anchor="middle" dominant-baseline="middle" font-family="Inter, Arial, sans-serif" font-size="14" font-weight="700" fill="#111827"><tspan x="2280" y="515.9">D2</tspan><tspan x="2280" y="534.1">Pet and Ownership Data</tspan></text></g><g id="ipawcus-level-2-2-0-role-owner"><rect x="80" y="210" width="260" height="80" rx="5" fill="#ffffff" stroke="#374151" stroke-width="2.5"/><text x="210" y="250" text-anchor="middle" dominant-baseline="middle" font-family="Inter, Arial, sans-serif" font-size="14" font-weight="700" fill="#111827"><tspan x="210" y="250.0">PET OWNER</tspan></text></g><g id="l2-2-p22"><rect x="680" y="530" width="540" height="120" rx="46" fill="#eff6ff" stroke="#2563eb" stroke-width="2.5"/><text x="950" y="590" text-anchor="middle" dominant-baseline="middle" font-family="Inter, Arial, sans-serif" font-size="16" font-weight="700" fill="#111827"><tspan x="950" y="579.6">2.2</tspan><tspan x="950" y="600.4">MANAGE OWNERSHIP LINKS</tspan></text></g><g id="ipawcus-level-2-2-0-role-admin"><rect x="3570" y="720" width="260" height="80" rx="5" fill="#ffffff" stroke="#374151" stroke-width="2.5"/><text x="3700" y="760" text-anchor="middle" dominant-baseline="middle" font-family="Inter, Arial, sans-serif" font-size="14" font-weight="700" fill="#111827"><tspan x="3700" y="760.0">ADMIN</tspan></text></g><g id="l2-2-p23"><rect x="680" y="870" width="540" height="120" rx="46" fill="#eff6ff" stroke="#2563eb" stroke-width="2.5"/><text x="950" y="930" text-anchor="middle" dominant-baseline="middle" font-family="Inter, Arial, sans-serif" font-size="16" font-weight="700" fill="#111827"><tspan x="950" y="919.6">2.3</tspan><tspan x="950" y="940.4">PROVIDE PET AND OWNERSHIP DIRECTORY</tspan></text></g><g id="l2-2-e01-label"><text x="487.3" y="170.0" text-anchor="middle" dominant-baseline="middle" font-family="Inter, Arial, sans-serif" font-size="11" font-weight="400" fill="#0f172a"><tspan x="487.3" y="170.0">Pet registration details</tspan></text></g><g id="l2-2-e02-label"><text x="525.6" y="300.0" text-anchor="middle" dominant-baseline="middle" font-family="Inter, Arial, sans-serif" font-size="11" font-weight="400" fill="#0f172a"><tspan x="525.6" y="300.0">Pet record status</tspan></text></g><g id="l2-2-e03-label"><text x="1940.0" y="209.7" text-anchor="middle" dominant-baseline="middle" font-family="Inter, Arial, sans-serif" font-size="11" font-weight="400" fill="#0f172a"><tspan x="1940.0" y="209.7">Pet and ownership data</tspan></text></g><g id="l2-2-e04-label"><text x="1284.2" y="418.0" text-anchor="middle" dominant-baseline="middle" font-family="Inter, Arial, sans-serif" font-size="11" font-weight="400" fill="#0f172a"><tspan x="1284.2" y="418.0">Pet registration updates</tspan></text></g><g id="l2-2-e05-label"><text x="2833.4" y="710.0" text-anchor="middle" dominant-baseline="middle" font-family="Inter, Arial, sans-serif" font-size="11" font-weight="400" fill="#0f172a"><tspan x="2833.4" y="710.0">Pet record updates</tspan></text></g><g id="l2-2-e06-label"><text x="1795.1" y="610.0" text-anchor="middle" dominant-baseline="middle" font-family="Inter, Arial, sans-serif" font-size="11" font-weight="400" fill="#0f172a"><tspan x="1795.1" y="610.0">Current ownership links</tspan></text></g><g id="l2-2-e07-label"><text x="1460.7" y="550.0" text-anchor="middle" dominant-baseline="middle" font-family="Inter, Arial, sans-serif" font-size="11" font-weight="400" fill="#0f172a"><tspan x="1460.7" y="550.0">Pet record updates</tspan></text></g><g id="l2-2-e08-label"><text x="1614.6" y="452.0" text-anchor="middle" dominant-baseline="middle" font-family="Inter, Arial, sans-serif" font-size="11" font-weight="400" fill="#0f172a"><tspan x="1614.6" y="452.0">Pet directory records</tspan></text></g><g id="l2-2-e09-label"><text x="1927.6" y="860.0" text-anchor="middle" dominant-baseline="middle" font-family="Inter, Arial, sans-serif" font-size="11" font-weight="400" fill="#0f172a"><tspan x="1927.6" y="860.0">Pet directory</tspan></text></g>
</g>
</svg>
