<?xml version="1.0" encoding="UTF-8"?>
<svg xmlns="http://www.w3.org/2000/svg" width="3900
" height="1110" viewBox="0 0 3900 1110
" role="img" aria-labelledby="ipawcus-level-2-6-0-title">
<title id="ipawcus-level-2-6-0-title">IPAWCUS Level 2 DFD - Process 6.0</title>
<desc>FigJam-importable IPAWCUS data-flow diagram with editable vector shapes and text.</desc>
<defs><marker id="ipawcus-level-2-6-0-arrow" markerWidth="10" markerHeight="10" refX="8.5" refY="5" orient="auto" markerUnits="strokeWidth"><path d="M 0 0 L 10 5 L 0 10 z" fill="#334155"/></marker></defs>
<g id="ipawcus-level-2-6-0-board">
<rect x="0" y="0" width="3900" height="1110" fill="#ffffff"/><text x="30" y="38" text-anchor="start" dominant-baseline="middle" font-family="Inter, Arial, sans-serif" font-size="25" font-weight="750" fill="#0f172a"><tspan x="30" y="38.0">IPAWCUS Level 2 DFD - Process 6.0</tspan></text><text x="30" y="68" text-anchor="start" dominant-baseline="middle" font-family="Inter, Arial, sans-serif" font-size="12" font-weight="400" fill="#475569"><tspan x="30" y="68.0">Manage Inventory and Services: decomposition of Level-1 Process 6.0</tspan></text><rect x="3060" y="18" width="810" height="42" rx="7" fill="#f8fafc" stroke="#cbd5e1"/><text x="3465" y="39" text-anchor="middle" dominant-baseline="middle" font-family="Inter, Arial, sans-serif" font-size="12" font-weight="700" fill="#334155"><tspan x="3465" y="39.0">PROCESS 6.0 BOUNDARY  -&gt;  DECOMPOSED DATA FLOWS</tspan></text><rect x="2970" y="70" width="900" height="40" rx="7" fill="#ffffff" stroke="#cbd5e1"/><text x="2985" y="90" text-anchor="start" dominant-baseline="middle" font-family="Inter, Arial, sans-serif" font-size="11" font-weight="400" fill="#334155"><tspan x="2985" y="90.0">Rectangle = external entity    Rounded box = process    Open-ended box = logical data store    Arrow label = data moved</tspan></text><g id="ipawcus-level-2-6-0-left-role-zone"><rect x="40" y="112" width="320" height="34" rx="12" fill="#ffffff" fill-opacity="0" stroke="#cbd5e1" stroke-width="1.5" stroke-dasharray="8 8"/><text x="200" y="139" text-anchor="middle" dominant-baseline="middle" font-family="Inter, Arial, sans-serif" font-size="13" font-weight="700" fill="#475569"><tspan x="200" y="139.0">EXTERNAL ENTITY</tspan></text></g><g id="ipawcus-level-2-6-0-process-zone"><rect x="610" y="112" width="680" height="34" rx="12" fill="#ffffff" fill-opacity="0" stroke="#cbd5e1" stroke-width="1.5" stroke-dasharray="8 8"/><text x="950" y="139" text-anchor="middle" dominant-baseline="middle" font-family="Inter, Arial, sans-serif" font-size="13" font-weight="700" fill="#475569"><tspan x="950" y="139.0">SUBPROCESSES</tspan></text></g><g id="ipawcus-level-2-6-0-stores-zone"><rect x="1910" y="112" width="740" height="34" rx="12" fill="#ffffff" fill-opacity="0" stroke="#cbd5e1" stroke-width="1.5" stroke-dasharray="8 8"/><text x="2280" y="139" text-anchor="middle" dominant-baseline="middle" font-family="Inter, Arial, sans-serif" font-size="13" font-weight="700" fill="#475569"><tspan x="2280" y="139.0">LOGICAL DATA STORES</tspan></text></g><g id="ipawcus-level-2-6-0-right-role-zone"><rect x="3540" y="112" width="320" height="34" rx="12" fill="#ffffff" fill-opacity="0" stroke="#cbd5e1" stroke-width="1.5" stroke-dasharray="8 8"/><text x="3700" y="139" text-anchor="middle" dominant-baseline="middle" font-family="Inter, Arial, sans-serif" font-size="13" font-weight="700" fill="#475569"><tspan x="3700" y="139.0">EXTERNAL ENTITIES</tspan></text></g><g id="l2-6-e01-connector"><path d="M 3570 620 L 2620 620 L 2620 170 L 1260 170 L 1260 190 L 1220 190" fill="none" stroke="#ffffff" stroke-width="8" stroke-linecap="round" stroke-linejoin="round"/><path d="M 3570 620 L 2620 620 L 2620 170 L 1260 170 L 1260 190 L 1220 190" fill="none" stroke="#334155" stroke-width="1.8" stroke-linecap="round" stroke-linejoin="round" marker-end="url(#ipawcus-level-2-6-0-arrow)"/></g><g id="l2-6-e02-connector"><path d="M 1980 250 L 1940 250 L 1940 300 L 1220 300" fill="none" stroke="#ffffff" stroke-width="8" stroke-linecap="round" stroke-linejoin="round"/><path d="M 1980 250 L 1940 250 L 1940 300 L 1220 300" fill="none" stroke="#334155" stroke-width="1.8" stroke-linecap="round" stroke-linejoin="round" marker-end="url(#ipawcus-level-2-6-0-arrow)"/></g><g id="l2-6-e03-connector"><path d="M 1980 570 L 1280 570 L 1280 240 L 1220 240" fill="none" stroke="#ffffff" stroke-width="8" stroke-linecap="round" stroke-linejoin="round"/><path d="M 1980 570 L 1280 570 L 1280 240 L 1220 240" fill="none" stroke="#334155" stroke-width="1.8" stroke-linecap="round" stroke-linejoin="round" marker-end="url(#ipawcus-level-2-6-0-arrow)"/></g><g id="l2-6-e04-connector"><path d="M 950 310 L 950 530" fill="none" stroke="#ffffff" stroke-width="8" stroke-linecap="round" stroke-linejoin="round"/><path d="M 950 310 L 950 530" fill="none" stroke="#334155" stroke-width="1.8" stroke-linecap="round" stroke-linejoin="round" marker-end="url(#ipawcus-level-2-6-0-arrow)"/></g><g id="l2-6-e05-connector"><path d="M 1980 600 L 1260 600 L 1260 540 L 1220 540" fill="none" stroke="#ffffff" stroke-width="8" stroke-linecap="round" stroke-linejoin="round"/><path d="M 1980 600 L 1260 600 L 1260 540 L 1220 540" fill="none" stroke="#334155" stroke-width="1.8" stroke-linecap="round" stroke-linejoin="round" marker-end="url(#ipawcus-level-2-6-0-arrow)"/></g><g id="l2-6-e06-connector"><path d="M 1220 650 L 1940 650 L 1940 630 L 1980 630" fill="none" stroke="#ffffff" stroke-width="8" stroke-linecap="round" stroke-linejoin="round"/><path d="M 1220 650 L 1940 650 L 1940 630 L 1980 630" fill="none" stroke="#334155" stroke-width="1.8" stroke-linecap="round" stroke-linejoin="round" marker-end="url(#ipawcus-level-2-6-0-arrow)"/></g><g id="l2-6-e07-connector"><path d="M 950 660 L 950 880" fill="none" stroke="#ffffff" stroke-width="8" stroke-linecap="round" stroke-linejoin="round"/><path d="M 950 660 L 950 880" fill="none" stroke="#334155" stroke-width="1.8" stroke-linecap="round" stroke-linejoin="round" marker-end="url(#ipawcus-level-2-6-0-arrow)"/></g><g id="l2-6-e08-connector"><path d="M 1980 550 L 1270 550 L 1270 990 L 1220 990" fill="none" stroke="#ffffff" stroke-width="8" stroke-linecap="round" stroke-linejoin="round"/><path d="M 1980 550 L 1270 550 L 1270 990 L 1220 990" fill="none" stroke="#334155" stroke-width="1.8" stroke-linecap="round" stroke-linejoin="round" marker-end="url(#ipawcus-level-2-6-0-arrow)"/></g><g id="l2-6-e09-connector"><path d="M 1220 890 L 3530 890 L 3530 560 L 3570 560" fill="none" stroke="#ffffff" stroke-width="8" stroke-linecap="round" stroke-linejoin="round"/><path d="M 1220 890 L 3530 890 L 3530 560 L 3570 560" fill="none" stroke="#334155" stroke-width="1.8" stroke-linecap="round" stroke-linejoin="round" marker-end="url(#ipawcus-level-2-6-0-arrow)"/></g><g id="l2-6-p61"><rect x="680" y="180" width="540" height="130" rx="46" fill="#eff6ff" stroke="#2563eb" stroke-width="2.5"/><text x="950" y="245" text-anchor="middle" dominant-baseline="middle" font-family="Inter, Arial, sans-serif" font-size="16" font-weight="700" fill="#111827"><tspan x="950" y="234.6">6.1</tspan><tspan x="950" y="255.4">PROCESS SERVICE AND INVENTORY TRANSACTIONS</tspan></text></g><g id="ipawcus-level-2-6-0-store-d5"><rect x="1980" y="210" width="600" height="70" fill="#f0fdf4"/><path d="M 1980 210 H 2580 M 1980 280 H 2580 M 1998 210 V 280" fill="none" stroke="#15803d" stroke-width="2.5"/><text x="2280" y="245" text-anchor="middle" dominant-baseline="middle" font-family="Inter, Arial, sans-serif" font-size="14" font-weight="700" fill="#111827"><tspan x="2280" y="235.9">D5</tspan><tspan x="2280" y="254.1">Boarding Data</tspan></text></g><g id="ipawcus-level-2-6-0-store-d6"><rect x="1980" y="540" width="600" height="100" fill="#f0fdf4"/><path d="M 1980 540 H 2580 M 1980 640 H 2580 M 1998 540 V 640" fill="none" stroke="#15803d" stroke-width="2.5"/><text x="2280" y="590" text-anchor="middle" dominant-baseline="middle" font-family="Inter, Arial, sans-serif" font-size="14" font-weight="700" fill="#111827"><tspan x="2280" y="580.9">D6</tspan><tspan x="2280" y="599.1">Branch, Service, Room and Inventory Data</tspan></text></g><g id="ipawcus-level-2-6-0-role-admin"><rect x="3570" y="550" width="260" height="80" rx="5" fill="#ffffff" stroke="#374151" stroke-width="2.5"/><text x="3700" y="590" text-anchor="middle" dominant-baseline="middle" font-family="Inter, Arial, sans-serif" font-size="14" font-weight="700" fill="#111827"><tspan x="3700" y="590.0">ADMIN</tspan></text></g><g id="l2-6-p62"><rect x="680" y="530" width="540" height="130" rx="46" fill="#eff6ff" stroke="#2563eb" stroke-width="2.5"/><text x="950" y="595" text-anchor="middle" dominant-baseline="middle" font-family="Inter, Arial, sans-serif" font-size="16" font-weight="700" fill="#111827"><tspan x="950" y="584.6">6.2</tspan><tspan x="950" y="605.4">MAINTAIN SERVICE, ROOM AND STOCK RECORDS</tspan></text></g><g id="l2-6-p63"><rect x="680" y="880" width="540" height="120" rx="46" fill="#eff6ff" stroke="#2563eb" stroke-width="2.5"/><text x="950" y="940" text-anchor="middle" dominant-baseline="middle" font-family="Inter, Arial, sans-serif" font-size="16" font-weight="700" fill="#111827"><tspan x="950" y="929.6">6.3</tspan><tspan x="950" y="950.4">MONITOR AVAILABILITY AND STOCK LEVELS</tspan></text></g><g id="l2-6-e01-label"><text x="2752.2" y="600.0" text-anchor="middle" dominant-baseline="middle" font-family="Inter, Arial, sans-serif" font-size="11" font-weight="400" fill="#0f172a"><tspan x="2752.2" y="600.0">Inventory updates</tspan></text></g><g id="l2-6-e02-label"><text x="1795.1" y="320.0" text-anchor="middle" dominant-baseline="middle" font-family="Inter, Arial, sans-serif" font-size="11" font-weight="400" fill="#0f172a"><tspan x="1795.1" y="320.0">Boarding material usage</tspan></text></g><g id="l2-6-e03-label"><text x="1663.9" y="502.0" text-anchor="middle" dominant-baseline="middle" font-family="Inter, Arial, sans-serif" font-size="11" font-weight="400" fill="#0f172a"><tspan x="1663.9" y="502.0">Resource and inventory data</tspan></text></g><g id="l2-6-e04-label"><text x="950.0" y="393.8" text-anchor="middle" dominant-baseline="middle" font-family="Inter, Arial, sans-serif" font-size="11" font-weight="400" fill="#0f172a"><tspan x="950.0" y="393.8">Validated inventory update</tspan></text></g><g id="l2-6-e05-label"><text x="1742.2" y="702.0" text-anchor="middle" dominant-baseline="middle" font-family="Inter, Arial, sans-serif" font-size="11" font-weight="400" fill="#0f172a"><tspan x="1742.2" y="694.9">Current service, room and stock</tspan><tspan x="1742.2" y="709.1">records</tspan></text></g><g id="l2-6-e06-label"><text x="1446.2" y="670.0" text-anchor="middle" dominant-baseline="middle" font-family="Inter, Arial, sans-serif" font-size="11" font-weight="400" fill="#0f172a"><tspan x="1446.2" y="670.0">Resource and inventory updates</tspan></text></g><g id="l2-6-e07-label"><text x="950.0" y="751.8" text-anchor="middle" dominant-baseline="middle" font-family="Inter, Arial, sans-serif" font-size="11" font-weight="400" fill="#0f172a"><tspan x="950.0" y="751.8">Updated stock levels</tspan></text></g><g id="l2-6-e08-label"><text x="1976.0" y="486.0" text-anchor="middle" dominant-baseline="middle" font-family="Inter, Arial, sans-serif" font-size="11" font-weight="400" fill="#0f172a"><tspan x="1976.0" y="486.0">Availability and stock levels</tspan></text></g><g id="l2-6-e09-label"><text x="1997.2" y="870.0" text-anchor="middle" dominant-baseline="middle" font-family="Inter, Arial, sans-serif" font-size="11" font-weight="400" fill="#0f172a"><tspan x="1997.2" y="870.0">Resource and stock status</tspan></text></g>
</g>
</svg>
