<?xml version="1.0" encoding="UTF-8"?>
<svg xmlns="http://www.w3.org/2000/svg" width="3900
" height="1330" viewBox="0 0 3900 1330
" role="img" aria-labelledby="ipawcus-level-2-9-0-title">
<title id="ipawcus-level-2-9-0-title">IPAWCUS Level 2 DFD - Process 9.0 - Professional Layout</title>
<desc>FigJam-importable IPAWCUS data-flow diagram with editable vector shapes and text.</desc>
<defs><marker id="ipawcus-level-2-9-0-arrow" markerWidth="10" markerHeight="10" refX="8.5" refY="5" orient="auto" markerUnits="strokeWidth"><path d="M 0 0 L 10 5 L 0 10 z" fill="#334155"/></marker></defs>
<g id="ipawcus-level-2-9-0-board">
<rect x="0" y="0" width="3900" height="1330" fill="#ffffff"/><text x="30" y="38" text-anchor="start" dominant-baseline="middle" font-family="Inter, Arial, sans-serif" font-size="25" font-weight="750" fill="#0f172a"><tspan x="30" y="38.0">IPAWCUS Level 2 DFD - Process 9.0 - Professional Layout</tspan></text><text x="30" y="68" text-anchor="start" dominant-baseline="middle" font-family="Inter, Arial, sans-serif" font-size="12" font-weight="400" fill="#475569"><tspan x="30" y="68.0">Generate Reports and Monitor System: decomposition of Level-1 Process 9.0</tspan></text><rect x="3060" y="18" width="810" height="42" rx="7" fill="#f8fafc" stroke="#cbd5e1"/><text x="3465" y="39" text-anchor="middle" dominant-baseline="middle" font-family="Inter, Arial, sans-serif" font-size="12" font-weight="700" fill="#334155"><tspan x="3465" y="39.0">BOUNDARY INPUTS  |  SUBPROCESSES  |  SHARED DATA STORES  |  BOUNDARY OUTPUTS</tspan></text><rect x="2970" y="70" width="900" height="40" rx="7" fill="#ffffff" stroke="#cbd5e1"/><text x="2985" y="90" text-anchor="start" dominant-baseline="middle" font-family="Inter, Arial, sans-serif" font-size="11" font-weight="400" fill="#334155"><tspan x="2985" y="90.0">Rectangle = external entity    Rounded box = process    Open-ended box = logical data store    Arrow label = data moved</tspan></text><g id="ipawcus-level-2-9-0-left-role-zone"><rect x="40" y="112" width="320" height="34" rx="12" fill="#ffffff" fill-opacity="0" stroke="#cbd5e1" stroke-width="1.5" stroke-dasharray="8 8"/><text x="200" y="139" text-anchor="middle" dominant-baseline="middle" font-family="Inter, Arial, sans-serif" font-size="13" font-weight="700" fill="#475569"><tspan x="200" y="139.0">EXTERNAL ENTITY</tspan></text></g><g id="ipawcus-level-2-9-0-process-zone"><rect x="610" y="112" width="680" height="34" rx="12" fill="#ffffff" fill-opacity="0" stroke="#cbd5e1" stroke-width="1.5" stroke-dasharray="8 8"/><text x="950" y="139" text-anchor="middle" dominant-baseline="middle" font-family="Inter, Arial, sans-serif" font-size="13" font-weight="700" fill="#475569"><tspan x="950" y="139.0">SUBPROCESSES</tspan></text></g><g id="ipawcus-level-2-9-0-stores-zone"><rect x="1910" y="112" width="740" height="34" rx="12" fill="#ffffff" fill-opacity="0" stroke="#cbd5e1" stroke-width="1.5" stroke-dasharray="8 8"/><text x="2280" y="139" text-anchor="middle" dominant-baseline="middle" font-family="Inter, Arial, sans-serif" font-size="13" font-weight="700" fill="#475569"><tspan x="2280" y="139.0">LOGICAL DATA STORES</tspan></text></g><g id="ipawcus-level-2-9-0-right-role-zone"><rect x="3540" y="112" width="320" height="34" rx="12" fill="#ffffff" fill-opacity="0" stroke="#cbd5e1" stroke-width="1.5" stroke-dasharray="8 8"/><text x="3700" y="139" text-anchor="middle" dominant-baseline="middle" font-family="Inter, Arial, sans-serif" font-size="13" font-weight="700" fill="#475569"><tspan x="3700" y="139.0">EXTERNAL ENTITIES</tspan></text></g><g id="l2-9-e01-connector"><path d="M 340 340 L 680 340" fill="none" stroke="#ffffff" stroke-width="8" stroke-linecap="round" stroke-linejoin="round"/><path d="M 340 340 L 680 340" fill="none" stroke="#334155" stroke-width="1.8" stroke-linecap="round" stroke-linejoin="round" marker-end="url(#ipawcus-level-2-9-0-arrow)"/></g><g id="l2-9-e02-connector"><path d="M 1220 250 L 1260 250 L 1260 140 L 3530 140 L 3530 340 L 3570 340" fill="none" stroke="#ffffff" stroke-width="8" stroke-linecap="round" stroke-linejoin="round"/><path d="M 1220 250 L 1260 250 L 1260 140 L 3530 140 L 3530 340 L 3570 340" fill="none" stroke="#334155" stroke-width="1.8" stroke-linecap="round" stroke-linejoin="round" marker-end="url(#ipawcus-level-2-9-0-arrow)"/></g><g id="l2-9-e03-connector"><path d="M 1980 860 L 1290 860 L 1290 310 L 1220 310" fill="none" stroke="#ffffff" stroke-width="8" stroke-linecap="round" stroke-linejoin="round"/><path d="M 1980 860 L 1290 860 L 1290 310 L 1220 310" fill="none" stroke="#334155" stroke-width="1.8" stroke-linecap="round" stroke-linejoin="round" marker-end="url(#ipawcus-level-2-9-0-arrow)"/></g><g id="l2-9-e04-connector"><path d="M 1980 730 L 1310 730 L 1310 330 L 1220 330" fill="none" stroke="#ffffff" stroke-width="8" stroke-linecap="round" stroke-linejoin="round"/><path d="M 1980 730 L 1310 730 L 1310 330 L 1220 330" fill="none" stroke="#334155" stroke-width="1.8" stroke-linecap="round" stroke-linejoin="round" marker-end="url(#ipawcus-level-2-9-0-arrow)"/></g><g id="l2-9-e05-connector"><path d="M 1980 1010 L 1280 1010 L 1280 290 L 1220 290" fill="none" stroke="#ffffff" stroke-width="8" stroke-linecap="round" stroke-linejoin="round"/><path d="M 1980 1010 L 1280 1010 L 1280 290 L 1220 290" fill="none" stroke="#334155" stroke-width="1.8" stroke-linecap="round" stroke-linejoin="round" marker-end="url(#ipawcus-level-2-9-0-arrow)"/></g><g id="l2-9-e06-connector"><path d="M 1980 1150 L 1270 1150 L 1270 270 L 1220 270" fill="none" stroke="#ffffff" stroke-width="8" stroke-linecap="round" stroke-linejoin="round"/><path d="M 1980 1150 L 1270 1150 L 1270 270 L 1220 270" fill="none" stroke="#334155" stroke-width="1.8" stroke-linecap="round" stroke-linejoin="round" marker-end="url(#ipawcus-level-2-9-0-arrow)"/></g><g id="l2-9-e07-connector"><path d="M 1980 220 L 1210 220 L 1210 380 L 1260 380 L 1260 390 L 1220 390" fill="none" stroke="#ffffff" stroke-width="8" stroke-linecap="round" stroke-linejoin="round"/><path d="M 1980 220 L 1210 220 L 1210 380 L 1260 380 L 1260 390 L 1220 390" fill="none" stroke="#334155" stroke-width="1.8" stroke-linecap="round" stroke-linejoin="round" marker-end="url(#ipawcus-level-2-9-0-arrow)"/></g><g id="l2-9-e08-connector"><path d="M 1980 510 L 1940 510 L 1940 370 L 1220 370" fill="none" stroke="#ffffff" stroke-width="8" stroke-linecap="round" stroke-linejoin="round"/><path d="M 1980 510 L 1940 510 L 1940 370 L 1220 370" fill="none" stroke="#334155" stroke-width="1.8" stroke-linecap="round" stroke-linejoin="round" marker-end="url(#ipawcus-level-2-9-0-arrow)"/></g><g id="l2-9-e09-connector"><path d="M 1980 590 L 1300 590 L 1300 350 L 1220 350" fill="none" stroke="#ffffff" stroke-width="8" stroke-linecap="round" stroke-linejoin="round"/><path d="M 1980 590 L 1300 590 L 1300 350 L 1220 350" fill="none" stroke="#334155" stroke-width="1.8" stroke-linecap="round" stroke-linejoin="round" marker-end="url(#ipawcus-level-2-9-0-arrow)"/></g><g id="l2-9-e10-connector"><path d="M 1980 360 L 1320 360 L 1320 420 L 1220 420" fill="none" stroke="#ffffff" stroke-width="8" stroke-linecap="round" stroke-linejoin="round"/><path d="M 1980 360 L 1320 360 L 1320 420 L 1220 420" fill="none" stroke="#334155" stroke-width="1.8" stroke-linecap="round" stroke-linejoin="round" marker-end="url(#ipawcus-level-2-9-0-arrow)"/></g><g id="l2-9-e11-connector"><path d="M 340 730 L 680 730" fill="none" stroke="#ffffff" stroke-width="8" stroke-linecap="round" stroke-linejoin="round"/><path d="M 340 730 L 680 730" fill="none" stroke="#334155" stroke-width="1.8" stroke-linecap="round" stroke-linejoin="round" marker-end="url(#ipawcus-level-2-9-0-arrow)"/></g><g id="l2-9-e12-connector"><path d="M 1980 920 L 1330 920 L 1330 750 L 1220 750" fill="none" stroke="#ffffff" stroke-width="8" stroke-linecap="round" stroke-linejoin="round"/><path d="M 1980 920 L 1330 920 L 1330 750 L 1220 750" fill="none" stroke="#334155" stroke-width="1.8" stroke-linecap="round" stroke-linejoin="round" marker-end="url(#ipawcus-level-2-9-0-arrow)"/></g><g id="l2-9-e13-connector"><path d="M 1980 1040 L 1940 1040 L 1940 1020 L 1260 1020 L 1260 690 L 1220 690" fill="none" stroke="#ffffff" stroke-width="8" stroke-linecap="round" stroke-linejoin="round"/><path d="M 1980 1040 L 1940 1040 L 1940 1020 L 1260 1020 L 1260 690 L 1220 690" fill="none" stroke="#334155" stroke-width="1.8" stroke-linecap="round" stroke-linejoin="round" marker-end="url(#ipawcus-level-2-9-0-arrow)"/></g><g id="l2-9-e14-connector"><path d="M 1980 1180 L 1300 1180 L 1300 660 L 1220 660" fill="none" stroke="#ffffff" stroke-width="8" stroke-linecap="round" stroke-linejoin="round"/><path d="M 1980 1180 L 1300 1180 L 1300 660 L 1220 660" fill="none" stroke="#334155" stroke-width="1.8" stroke-linecap="round" stroke-linejoin="round" marker-end="url(#ipawcus-level-2-9-0-arrow)"/></g><g id="l2-9-e15-connector"><path d="M 1980 460 L 1320 460 L 1320 720 L 1220 720" fill="none" stroke="#ffffff" stroke-width="8" stroke-linecap="round" stroke-linejoin="round"/><path d="M 1980 460 L 1320 460 L 1320 720 L 1220 720" fill="none" stroke="#334155" stroke-width="1.8" stroke-linecap="round" stroke-linejoin="round" marker-end="url(#ipawcus-level-2-9-0-arrow)"/></g><g id="l2-9-e16-connector"><path d="M 1980 640 L 1340 640 L 1340 790 L 1220 790" fill="none" stroke="#ffffff" stroke-width="8" stroke-linecap="round" stroke-linejoin="round"/><path d="M 1980 640 L 1340 640 L 1340 790 L 1220 790" fill="none" stroke="#334155" stroke-width="1.8" stroke-linecap="round" stroke-linejoin="round" marker-end="url(#ipawcus-level-2-9-0-arrow)"/></g><g id="l2-9-e17-connector"><path d="M 950 800 L 950 1020" fill="none" stroke="#ffffff" stroke-width="8" stroke-linecap="round" stroke-linejoin="round"/><path d="M 950 800 L 950 1020" fill="none" stroke="#334155" stroke-width="1.8" stroke-linecap="round" stroke-linejoin="round" marker-end="url(#ipawcus-level-2-9-0-arrow)"/></g><g id="l2-9-e18-connector"><path d="M 1980 890 L 1320 890 L 1320 1090 L 1220 1090" fill="none" stroke="#ffffff" stroke-width="8" stroke-linecap="round" stroke-linejoin="round"/><path d="M 1980 890 L 1320 890 L 1320 1090 L 1220 1090" fill="none" stroke="#334155" stroke-width="1.8" stroke-linecap="round" stroke-linejoin="round" marker-end="url(#ipawcus-level-2-9-0-arrow)"/></g><g id="l2-9-e19-connector"><path d="M 1980 780 L 1310 780 L 1310 1060 L 1220 1060" fill="none" stroke="#ffffff" stroke-width="8" stroke-linecap="round" stroke-linejoin="round"/><path d="M 1980 780 L 1310 780 L 1310 1060 L 1220 1060" fill="none" stroke="#334155" stroke-width="1.8" stroke-linecap="round" stroke-linejoin="round" marker-end="url(#ipawcus-level-2-9-0-arrow)"/></g><g id="l2-9-e20-connector"><path d="M 1980 1070 L 1940 1070 L 1940 1160 L 1270 1160 L 1270 1150 L 1220 1150" fill="none" stroke="#ffffff" stroke-width="8" stroke-linecap="round" stroke-linejoin="round"/><path d="M 1980 1070 L 1940 1070 L 1940 1160 L 1270 1160 L 1270 1150 L 1220 1150" fill="none" stroke="#334155" stroke-width="1.8" stroke-linecap="round" stroke-linejoin="round" marker-end="url(#ipawcus-level-2-9-0-arrow)"/></g><g id="l2-9-e21-connector"><path d="M 1980 1210 L 1260 1210 L 1260 1120 L 1220 1120" fill="none" stroke="#ffffff" stroke-width="8" stroke-linecap="round" stroke-linejoin="round"/><path d="M 1980 1210 L 1260 1210 L 1260 1120 L 1220 1120" fill="none" stroke="#334155" stroke-width="1.8" stroke-linecap="round" stroke-linejoin="round" marker-end="url(#ipawcus-level-2-9-0-arrow)"/></g><g id="l2-9-e22-connector"><path d="M 1220 1030 L 1930 1030 L 1930 1260 L 3530 1260 L 3530 1090 L 3570 1090" fill="none" stroke="#ffffff" stroke-width="8" stroke-linecap="round" stroke-linejoin="round"/><path d="M 1220 1030 L 1930 1030 L 1930 1260 L 3530 1260 L 3530 1090 L 3570 1090" fill="none" stroke="#334155" stroke-width="1.8" stroke-linecap="round" stroke-linejoin="round" marker-end="url(#ipawcus-level-2-9-0-arrow)"/></g><g id="l2-9-p91"><rect x="680" y="240" width="540" height="190" rx="46" fill="#eff6ff" stroke="#2563eb" stroke-width="2.5"/><text x="950" y="335" text-anchor="middle" dominant-baseline="middle" font-family="Inter, Arial, sans-serif" font-size="16" font-weight="700" fill="#111827"><tspan x="950" y="324.6">9.1</tspan><tspan x="950" y="345.4">COMPILE DASHBOARDS AND REPORTS</tspan></text></g><g id="ipawcus-level-2-9-0-store-d1"><rect x="1980" y="850" width="600" height="80" fill="#f0fdf4"/><path d="M 1980 850 H 2580 M 1980 930 H 2580 M 1998 850 V 930" fill="none" stroke="#15803d" stroke-width="2.5"/><text x="2280" y="890" text-anchor="middle" dominant-baseline="middle" font-family="Inter, Arial, sans-serif" font-size="14" font-weight="700" fill="#111827"><tspan x="2280" y="880.9">D1</tspan><tspan x="2280" y="899.1">User, Profile, Role and Branch Access Data</tspan></text></g><g id="ipawcus-level-2-9-0-store-d2"><rect x="1980" y="720" width="600" height="70" fill="#f0fdf4"/><path d="M 1980 720 H 2580 M 1980 790 H 2580 M 1998 720 V 790" fill="none" stroke="#15803d" stroke-width="2.5"/><text x="2280" y="755" text-anchor="middle" dominant-baseline="middle" font-family="Inter, Arial, sans-serif" font-size="14" font-weight="700" fill="#111827"><tspan x="2280" y="745.9">D2</tspan><tspan x="2280" y="764.1">Pet and Ownership Data</tspan></text></g><g id="ipawcus-level-2-9-0-store-d3"><rect x="1980" y="1000" width="600" height="80" fill="#f0fdf4"/><path d="M 1980 1000 H 2580 M 1980 1080 H 2580 M 1998 1000 V 1080" fill="none" stroke="#15803d" stroke-width="2.5"/><text x="2280" y="1040" text-anchor="middle" dominant-baseline="middle" font-family="Inter, Arial, sans-serif" font-size="14" font-weight="700" fill="#111827"><tspan x="2280" y="1030.9">D3</tspan><tspan x="2280" y="1049.1">Booking, Consent and Schedule Data</tspan></text></g><g id="ipawcus-level-2-9-0-store-d4"><rect x="1980" y="1140" width="600" height="80" fill="#f0fdf4"/><path d="M 1980 1140 H 2580 M 1980 1220 H 2580 M 1998 1140 V 1220" fill="none" stroke="#15803d" stroke-width="2.5"/><text x="2280" y="1180" text-anchor="middle" dominant-baseline="middle" font-family="Inter, Arial, sans-serif" font-size="14" font-weight="700" fill="#111827"><tspan x="2280" y="1170.9">D4</tspan><tspan x="2280" y="1189.1">Queue, Visit and Clinical Record Data</tspan></text></g><g id="ipawcus-level-2-9-0-store-d5"><rect x="1980" y="180" width="600" height="70" fill="#f0fdf4"/><path d="M 1980 180 H 2580 M 1980 250 H 2580 M 1998 180 V 250" fill="none" stroke="#15803d" stroke-width="2.5"/><text x="2280" y="215" text-anchor="middle" dominant-baseline="middle" font-family="Inter, Arial, sans-serif" font-size="14" font-weight="700" fill="#111827"><tspan x="2280" y="205.9">D5</tspan><tspan x="2280" y="224.1">Boarding Data</tspan></text></g><g id="ipawcus-level-2-9-0-store-d6"><rect x="1980" y="450" width="600" height="70" fill="#f0fdf4"/><path d="M 1980 450 H 2580 M 1980 520 H 2580 M 1998 450 V 520" fill="none" stroke="#15803d" stroke-width="2.5"/><text x="2280" y="485" text-anchor="middle" dominant-baseline="middle" font-family="Inter, Arial, sans-serif" font-size="14" font-weight="700" fill="#111827"><tspan x="2280" y="475.9">D6</tspan><tspan x="2280" y="494.1">Branch, Service, Room and Inventory Data</tspan></text></g><g id="ipawcus-level-2-9-0-store-d7"><rect x="1980" y="580" width="600" height="70" fill="#f0fdf4"/><path d="M 1980 580 H 2580 M 1980 650 H 2580 M 1998 580 V 650" fill="none" stroke="#15803d" stroke-width="2.5"/><text x="2280" y="615" text-anchor="middle" dominant-baseline="middle" font-family="Inter, Arial, sans-serif" font-size="14" font-weight="700" fill="#111827"><tspan x="2280" y="605.9">D7</tspan><tspan x="2280" y="624.1">Charge, Payment and Refund Data</tspan></text></g><g id="ipawcus-level-2-9-0-store-d8"><rect x="1980" y="320" width="600" height="70" fill="#f0fdf4"/><path d="M 1980 320 H 2580 M 1980 390 H 2580 M 1998 320 V 390" fill="none" stroke="#15803d" stroke-width="2.5"/><text x="2280" y="355" text-anchor="middle" dominant-baseline="middle" font-family="Inter, Arial, sans-serif" font-size="14" font-weight="700" fill="#111827"><tspan x="2280" y="345.9">D8</tspan><tspan x="2280" y="364.1">Notification, Preference and Task Data</tspan></text></g><g id="l2-9-p91-super-input"><rect x="80" y="300" width="260" height="80" rx="5" fill="#ffffff" stroke="#374151" stroke-width="2.5"/><text x="210" y="340" text-anchor="middle" dominant-baseline="middle" font-family="Inter, Arial, sans-serif" font-size="14" font-weight="700" fill="#111827"><tspan x="210" y="340.0">SUPER ADMIN</tspan></text></g><g id="l2-9-p91-super-output"><rect x="3570" y="300" width="260" height="80" rx="5" fill="#ffffff" stroke="#374151" stroke-width="2.5"/><text x="3700" y="340" text-anchor="middle" dominant-baseline="middle" font-family="Inter, Arial, sans-serif" font-size="14" font-weight="700" fill="#111827"><tspan x="3700" y="340.0">SUPER ADMIN</tspan></text></g><g id="l2-9-p92"><rect x="680" y="650" width="540" height="150" rx="46" fill="#eff6ff" stroke="#2563eb" stroke-width="2.5"/><text x="950" y="725" text-anchor="middle" dominant-baseline="middle" font-family="Inter, Arial, sans-serif" font-size="16" font-weight="700" fill="#111827"><tspan x="950" y="714.6">9.2</tspan><tspan x="950" y="735.4">MONITOR OPERATIONS AND EXCEPTIONS</tspan></text></g><g id="l2-9-p92-super"><rect x="80" y="690" width="260" height="80" rx="5" fill="#ffffff" stroke="#374151" stroke-width="2.5"/><text x="210" y="730" text-anchor="middle" dominant-baseline="middle" font-family="Inter, Arial, sans-serif" font-size="14" font-weight="700" fill="#111827"><tspan x="210" y="730.0">SUPER ADMIN</tspan></text></g><g id="l2-9-p93"><rect x="680" y="1020" width="540" height="140" rx="46" fill="#eff6ff" stroke="#2563eb" stroke-width="2.5"/><text x="950" y="1090" text-anchor="middle" dominant-baseline="middle" font-family="Inter, Arial, sans-serif" font-size="16" font-weight="700" fill="#111827"><tspan x="950" y="1079.6">9.3</tspan><tspan x="950" y="1100.4">GENERATE AUDIT AND RECOVERY RESULTS</tspan></text></g><g id="l2-9-p93-super"><rect x="3570" y="1050" width="260" height="80" rx="5" fill="#ffffff" stroke="#374151" stroke-width="2.5"/><text x="3700" y="1090" text-anchor="middle" dominant-baseline="middle" font-family="Inter, Arial, sans-serif" font-size="14" font-weight="700" fill="#111827"><tspan x="3700" y="1090.0">SUPER ADMIN</tspan></text></g><g id="l2-9-e01-label"><text x="508.6" y="320.0" text-anchor="middle" dominant-baseline="middle" font-family="Inter, Arial, sans-serif" font-size="11" font-weight="400" fill="#0f172a"><tspan x="508.6" y="320.0">Report filters</tspan></text></g><g id="l2-9-e02-label"><text x="1811.4" y="282.0" text-anchor="middle" dominant-baseline="middle" font-family="Inter, Arial, sans-serif" font-size="11" font-weight="400" fill="#0f172a"><tspan x="1811.4" y="282.0">Dashboards and reports</tspan></text></g><g id="l2-9-e03-label"><text x="1600.1" y="840.0" text-anchor="middle" dominant-baseline="middle" font-family="Inter, Arial, sans-serif" font-size="11" font-weight="400" fill="#0f172a"><tspan x="1600.1" y="840.0">Account and access statistics</tspan></text></g><g id="l2-9-e04-label"><text x="1643.6" y="750.0" text-anchor="middle" dominant-baseline="middle" font-family="Inter, Arial, sans-serif" font-size="11" font-weight="400" fill="#0f172a"><tspan x="1643.6" y="750.0">Pet and ownership statistics</tspan></text></g><g id="l2-9-e05-label"><text x="1550.8" y="990.0" text-anchor="middle" dominant-baseline="middle" font-family="Inter, Arial, sans-serif" font-size="11" font-weight="400" fill="#0f172a"><tspan x="1550.8" y="990.0">Booking and schedule statistics</tspan></text></g><g id="l2-9-e06-label"><text x="1504.4" y="1122.0" text-anchor="middle" dominant-baseline="middle" font-family="Inter, Arial, sans-serif" font-size="11" font-weight="400" fill="#0f172a"><tspan x="1504.4" y="1122.0">Queue and clinical statistics</tspan></text></g><g id="l2-9-e07-label"><text x="1681.3" y="200.0" text-anchor="middle" dominant-baseline="middle" font-family="Inter, Arial, sans-serif" font-size="11" font-weight="400" fill="#0f172a"><tspan x="1681.3" y="200.0">Boarding statistics</tspan></text></g><g id="l2-9-e08-label"><text x="1789.0" y="390.0" text-anchor="middle" dominant-baseline="middle" font-family="Inter, Arial, sans-serif" font-size="11" font-weight="400" fill="#0f172a"><tspan x="1789.0" y="390.0">Service and inventory statistics</tspan></text></g><g id="l2-9-e09-label"><text x="1690.0" y="570.0" text-anchor="middle" dominant-baseline="middle" font-family="Inter, Arial, sans-serif" font-size="11" font-weight="400" fill="#0f172a"><tspan x="1690.0" y="570.0">Billing and payment statistics</tspan></text></g><g id="l2-9-e10-label"><text x="1742.2" y="502.0" text-anchor="middle" dominant-baseline="middle" font-family="Inter, Arial, sans-serif" font-size="11" font-weight="400" fill="#0f172a"><tspan x="1742.2" y="502.0">Notification and task statistics</tspan></text></g><g id="l2-9-e11-label"><text x="508.6" y="710.0" text-anchor="middle" dominant-baseline="middle" font-family="Inter, Arial, sans-serif" font-size="11" font-weight="400" fill="#0f172a"><tspan x="508.6" y="710.0">Monitoring request</tspan></text></g><g id="l2-9-e12-label"><text x="1780.3" y="1062.0" text-anchor="middle" dominant-baseline="middle" font-family="Inter, Arial, sans-serif" font-size="11" font-weight="400" fill="#0f172a"><tspan x="1780.3" y="1062.0">Account and access exceptions</tspan></text></g><g id="l2-9-e13-label"><text x="1818.1" y="952.0" text-anchor="middle" dominant-baseline="middle" font-family="Inter, Arial, sans-serif" font-size="11" font-weight="400" fill="#0f172a"><tspan x="1818.1" y="952.0">Booking and schedule exceptions</tspan></text></g><g id="l2-9-e14-label"><text x="1608.8" y="1248.0" text-anchor="middle" dominant-baseline="middle" font-family="Inter, Arial, sans-serif" font-size="11" font-weight="400" fill="#0f172a"><tspan x="1608.8" y="1248.0">Queue and clinical exceptions</tspan></text></g><g id="l2-9-e15-label"><text x="1470.0" y="440.0" text-anchor="middle" dominant-baseline="middle" font-family="Inter, Arial, sans-serif" font-size="11" font-weight="400" fill="#0f172a"><tspan x="1470.0" y="440.0">Service and inventory exceptions</tspan></text></g><g id="l2-9-e16-label"><text x="1716.1" y="660.0" text-anchor="middle" dominant-baseline="middle" font-family="Inter, Arial, sans-serif" font-size="11" font-weight="400" fill="#0f172a"><tspan x="1716.1" y="660.0">Billing and payment exceptions</tspan></text></g><g id="l2-9-e17-label"><text x="950.0" y="891.8" text-anchor="middle" dominant-baseline="middle" font-family="Inter, Arial, sans-serif" font-size="11" font-weight="400" fill="#0f172a"><tspan x="950.0" y="891.8">Monitoring findings</tspan></text></g><g id="l2-9-e18-label"><text x="1545.2" y="910.0" text-anchor="middle" dominant-baseline="middle" font-family="Inter, Arial, sans-serif" font-size="11" font-weight="400" fill="#0f172a"><tspan x="1545.2" y="910.0">Account lifecycle data</tspan></text></g><g id="l2-9-e19-label"><text x="1444.8" y="676.0" text-anchor="middle" dominant-baseline="middle" font-family="Inter, Arial, sans-serif" font-size="11" font-weight="400" fill="#0f172a"><tspan x="1444.8" y="676.0">Pet lifecycle data</tspan></text></g><g id="l2-9-e20-label"><text x="1500.0" y="1058.0" text-anchor="middle" dominant-baseline="middle" font-family="Inter, Arial, sans-serif" font-size="11" font-weight="400" fill="#0f172a"><tspan x="1500.0" y="1058.0">Booking lifecycle data</tspan></text></g><g id="l2-9-e21-label"><text x="1313.0" y="1238.0" text-anchor="middle" dominant-baseline="middle" font-family="Inter, Arial, sans-serif" font-size="11" font-weight="400" fill="#0f172a"><tspan x="1313.0" y="1238.0">Visit and clinical lifecycle data</tspan></text></g><g id="l2-9-e22-label"><text x="2035.0" y="1280.0" text-anchor="middle" dominant-baseline="middle" font-family="Inter, Arial, sans-serif" font-size="11" font-weight="400" fill="#0f172a"><tspan x="2035.0" y="1280.0">Audit results</tspan></text></g>
</g>
</svg>
