<?xml version="1.0" encoding="UTF-8"?>
<svg xmlns="http://www.w3.org/2000/svg" width="2200
" height="1600" viewBox="0 0 2200 1600
" role="img" aria-labelledby="ipawcus-context-title">
<title id="ipawcus-context-title">IPAWCUS Context Diagram</title>
<desc>FigJam-importable IPAWCUS data-flow diagram with editable vector shapes and text.</desc>
<defs><marker id="ipawcus-context-arrow" markerWidth="10" markerHeight="10" refX="8.5" refY="5" orient="auto" markerUnits="strokeWidth"><path d="M 0 0 L 10 5 L 0 10 z" fill="#334155"/></marker></defs>
<g id="ipawcus-context-board">
<rect x="0" y="0" width="2200" height="1600" fill="#ffffff"/><text x="30" y="38" text-anchor="start" dominant-baseline="middle" font-family="Inter, Arial, sans-serif" font-size="25" font-weight="750" fill="#0f172a"><tspan x="30" y="38.0">IPAWCUS Context Diagram</tspan></text><text x="30" y="68" text-anchor="start" dominant-baseline="middle" font-family="Inter, Arial, sans-serif" font-size="12" font-weight="400" fill="#475569"><tspan x="30" y="68.0">Process 0 and the four external user roles — centered snowflake layout</tspan></text><rect x="1520" y="18" width="650" height="42" rx="7" fill="#f8fafc" stroke="#cbd5e1"/><text x="1845" y="39" text-anchor="middle" dominant-baseline="middle" font-family="Inter, Arial, sans-serif" font-size="12" font-weight="700" fill="#334155"><tspan x="1845" y="39.0">External role  →  Process 0  →  External role response</tspan></text><rect x="1270" y="70" width="900" height="40" rx="7" fill="#ffffff" stroke="#cbd5e1"/><text x="1285" y="90" text-anchor="start" dominant-baseline="middle" font-family="Inter, Arial, sans-serif" font-size="11" font-weight="400" fill="#334155"><tspan x="1285" y="90.0">Rectangle = external entity    Oval = Process 0    Arrow label = data crossing the system boundary</tspan></text><g id="ctx-super-in-connector"><path d="M 1040 310 L 1040 570 L 1020 570 L 1020 610" fill="none" stroke="#ffffff" stroke-width="8" stroke-linecap="round" stroke-linejoin="round"/><path d="M 1040 310 L 1040 570 L 1020 570 L 1020 610" fill="none" stroke="#334155" stroke-width="1.8" stroke-linecap="round" stroke-linejoin="round" marker-end="url(#ipawcus-context-arrow)"/></g><g id="ctx-super-out-connector"><path d="M 1180 610 L 1180 350 L 1160 350 L 1160 310" fill="none" stroke="#ffffff" stroke-width="8" stroke-linecap="round" stroke-linejoin="round"/><path d="M 1180 610 L 1180 350 L 1160 350 L 1160 310" fill="none" stroke="#334155" stroke-width="1.8" stroke-linecap="round" stroke-linejoin="round" marker-end="url(#ipawcus-context-arrow)"/></g><g id="ctx-admin-in-connector"><path d="M 500 750 L 780 750 L 780 720 L 820 720" fill="none" stroke="#ffffff" stroke-width="8" stroke-linecap="round" stroke-linejoin="round"/><path d="M 500 750 L 780 750 L 780 720 L 820 720" fill="none" stroke="#334155" stroke-width="1.8" stroke-linecap="round" stroke-linejoin="round" marker-end="url(#ipawcus-context-arrow)"/></g><g id="ctx-admin-out-connector"><path d="M 820 800 L 540 800 L 540 770 L 500 770" fill="none" stroke="#ffffff" stroke-width="8" stroke-linecap="round" stroke-linejoin="round"/><path d="M 820 800 L 540 800 L 540 770 L 500 770" fill="none" stroke="#334155" stroke-width="1.8" stroke-linecap="round" stroke-linejoin="round" marker-end="url(#ipawcus-context-arrow)"/></g><g id="ctx-vet-in-connector"><path d="M 1700 750 L 1420 750 L 1420 720 L 1380 720" fill="none" stroke="#ffffff" stroke-width="8" stroke-linecap="round" stroke-linejoin="round"/><path d="M 1700 750 L 1420 750 L 1420 720 L 1380 720" fill="none" stroke="#334155" stroke-width="1.8" stroke-linecap="round" stroke-linejoin="round" marker-end="url(#ipawcus-context-arrow)"/></g><g id="ctx-vet-out-connector"><path d="M 1380 800 L 1660 800 L 1660 770 L 1700 770" fill="none" stroke="#ffffff" stroke-width="8" stroke-linecap="round" stroke-linejoin="round"/><path d="M 1380 800 L 1660 800 L 1660 770 L 1700 770" fill="none" stroke="#334155" stroke-width="1.8" stroke-linecap="round" stroke-linejoin="round" marker-end="url(#ipawcus-context-arrow)"/></g><g id="ctx-owner-in-connector"><path d="M 1040 1280 L 1040 1240 L 1020 1240 L 1020 910" fill="none" stroke="#ffffff" stroke-width="8" stroke-linecap="round" stroke-linejoin="round"/><path d="M 1040 1280 L 1040 1240 L 1020 1240 L 1020 910" fill="none" stroke="#334155" stroke-width="1.8" stroke-linecap="round" stroke-linejoin="round" marker-end="url(#ipawcus-context-arrow)"/></g><g id="ctx-owner-out-connector"><path d="M 1180 910 L 1180 1240 L 1160 1240 L 1160 1280" fill="none" stroke="#ffffff" stroke-width="8" stroke-linecap="round" stroke-linejoin="round"/><path d="M 1180 910 L 1180 1240 L 1160 1240 L 1160 1280" fill="none" stroke="#334155" stroke-width="1.8" stroke-linecap="round" stroke-linejoin="round" marker-end="url(#ipawcus-context-arrow)"/></g><g id="ctx-system"><ellipse cx="1100" cy="760" rx="280" ry="150" fill="#eff6ff" stroke="#1d4ed8" stroke-width="2.5"/><text x="1100" y="760" text-anchor="middle" dominant-baseline="middle" font-family="Inter, Arial, sans-serif" font-size="18" font-weight="700" fill="#111827"><tspan x="1100" y="736.6">0</tspan><tspan x="1100" y="760.0">IPAWCUS</tspan><tspan x="1100" y="783.4">Integrated Pet Care and Clinic Management System</tspan></text></g><g id="ctx-super"><rect x="870" y="170" width="460" height="140" rx="5" fill="#ffffff" stroke="#374151" stroke-width="2.5"/><text x="1100" y="240" text-anchor="middle" dominant-baseline="middle" font-family="Inter, Arial, sans-serif" font-size="14" font-weight="700" fill="#111827"><tspan x="1100" y="230.9">SUPER ADMIN</tspan><tspan x="1100" y="249.1">Clinic Owner / System Overseer</tspan></text></g><g id="ctx-admin"><rect x="100" y="690" width="400" height="140" rx="5" fill="#ffffff" stroke="#374151" stroke-width="2.5"/><text x="300" y="760" text-anchor="middle" dominant-baseline="middle" font-family="Inter, Arial, sans-serif" font-size="14" font-weight="700" fill="#111827"><tspan x="300" y="750.9">ADMIN</tspan><tspan x="300" y="769.1">Nurse / Clinic Staff</tspan></text></g><g id="ctx-vet"><rect x="1700" y="690" width="400" height="140" rx="5" fill="#ffffff" stroke="#374151" stroke-width="2.5"/><text x="1900" y="760" text-anchor="middle" dominant-baseline="middle" font-family="Inter, Arial, sans-serif" font-size="14" font-weight="700" fill="#111827"><tspan x="1900" y="750.9">VETERINARIAN</tspan><tspan x="1900" y="769.1">Clinical Care Provider</tspan></text></g><g id="ctx-owner"><rect x="870" y="1280" width="460" height="140" rx="5" fill="#ffffff" stroke="#374151" stroke-width="2.5"/><text x="1100" y="1350" text-anchor="middle" dominant-baseline="middle" font-family="Inter, Arial, sans-serif" font-size="14" font-weight="700" fill="#111827"><tspan x="1100" y="1340.9">PET OWNER</tspan><tspan x="1100" y="1359.1">Client / Pet Parent</tspan></text></g><g id="ctx-super-in-label"><rect x="725.0" y="355.8" width="300" height="58" rx="5" fill="#ffffff" fill-opacity="0.97" stroke="#e2e8f0" stroke-width="1"/><text x="875.0" y="384.8" text-anchor="middle" dominant-baseline="middle" font-family="Inter, Arial, sans-serif" font-size="11" font-weight="400" fill="#0f172a"><tspan x="875.0" y="377.7">Credentials; personnel, role, branch,</tspan><tspan x="875.0" y="392.0">payment-setting, report and recovery requests</tspan></text></g><g id="ctx-super-out-label"><rect x="1195.0" y="469.2" width="300" height="60" rx="5" fill="#ffffff" fill-opacity="0.97" stroke="#e2e8f0" stroke-width="1"/><text x="1345.0" y="499.2" text-anchor="middle" dominant-baseline="middle" font-family="Inter, Arial, sans-serif" font-size="11" font-weight="400" fill="#0f172a"><tspan x="1345.0" y="484.9">Access, account and configuration status;</tspan><tspan x="1345.0" y="499.2">dashboards, audits, recovery results and</tspan><tspan x="1345.0" y="513.5">reports</tspan></text></g><g id="ctx-admin-in-label"><rect x="451.5" y="589.0" width="300" height="58" rx="5" fill="#ffffff" fill-opacity="0.97" stroke="#e2e8f0" stroke-width="1"/><text x="601.5" y="618.0" text-anchor="middle" dominant-baseline="middle" font-family="Inter, Arial, sans-serif" font-size="11" font-weight="400" fill="#0f172a"><tspan x="601.5" y="610.9">Credentials; pet, booking, queue, boarding,</tspan><tspan x="601.5" y="625.1">inventory, billing and record-request actions</tspan></text></g><g id="ctx-admin-out-label"><rect x="568.5" y="941.0" width="300" height="58" rx="5" fill="#ffffff" fill-opacity="0.97" stroke="#e2e8f0" stroke-width="1"/><text x="718.5" y="970.0" text-anchor="middle" dominant-baseline="middle" font-family="Inter, Arial, sans-serif" font-size="11" font-weight="400" fill="#0f172a"><tspan x="718.5" y="962.9">Access and branch permissions; pet, booking,</tspan><tspan x="718.5" y="977.1">visit, stock, billing and payment status</tspan></text></g><g id="ctx-vet-in-label"><rect x="1448.5" y="588.0" width="300" height="60" rx="5" fill="#ffffff" fill-opacity="0.97" stroke="#e2e8f0" stroke-width="1"/><text x="1598.5" y="618.0" text-anchor="middle" dominant-baseline="middle" font-family="Inter, Arial, sans-serif" font-size="11" font-weight="400" fill="#0f172a"><tspan x="1598.5" y="603.7">Credentials; availability, assignment,</tspan><tspan x="1598.5" y="618.0">diagnosis,</tspan><tspan x="1598.5" y="632.3">treatment, record and task updates</tspan></text></g><g id="ctx-vet-out-label"><rect x="1331.5" y="933.0" width="300" height="74" rx="5" fill="#ffffff" fill-opacity="0.97" stroke="#e2e8f0" stroke-width="1"/><text x="1481.5" y="970.0" text-anchor="middle" dominant-baseline="middle" font-family="Inter, Arial, sans-serif" font-size="11" font-weight="400" fill="#0f172a"><tspan x="1481.5" y="948.5">Access and branch assignment; schedules,</tspan><tspan x="1481.5" y="962.8">assigned</tspan><tspan x="1481.5" y="977.1">cases, pet history, consultation and</tspan><tspan x="1481.5" y="991.4">reminders</tspan></text></g><g id="ctx-owner-in-label"><rect x="685.0" y="1165.9" width="320" height="74" rx="5" fill="#ffffff" fill-opacity="0.97" stroke="#e2e8f0" stroke-width="1"/><text x="845.0" y="1202.9" text-anchor="middle" dominant-baseline="middle" font-family="Inter, Arial, sans-serif" font-size="11" font-weight="400" fill="#0f172a"><tspan x="845.0" y="1181.5">Credentials, profile and notification</tspan><tspan x="845.0" y="1195.8">preferences;</tspan><tspan x="845.0" y="1210.0">pet, booking, consent, payment, queue and</tspan><tspan x="845.0" y="1224.4">consultation data</tspan></text></g><g id="ctx-owner-out-label"><rect x="1205.0" y="1057.1" width="300" height="60" rx="5" fill="#ffffff" fill-opacity="0.97" stroke="#e2e8f0" stroke-width="1"/><text x="1355.0" y="1087.1" text-anchor="middle" dominant-baseline="middle" font-family="Inter, Arial, sans-serif" font-size="11" font-weight="400" fill="#0f172a"><tspan x="1355.0" y="1072.8">Access, pet, booking, payment and queue</tspan><tspan x="1355.0" y="1087.1">status;</tspan><tspan x="1355.0" y="1101.4">reminders, diagnoses and medical records</tspan></text></g>
</g>
</svg>
